999
dxfrw 0.6.3
  0
SECTION
  2
HEADER
  9
$ACADVER
  1
AC1021
  9
$DWGCODEPAGE
  3
ANSI_1252
  9
$INSBASE
 10
0
 20
0
 30
0
  9
$EXTMIN
 10
-38.50444431189779
 20
-11.84592803881345
 30
0
  9
$EXTMAX
 10
291.5018081813001
 20
313.5
 30
0
  9
$LIMMIN
 10
0
 20
0
  9
$LIMMAX
 10
420
 20
297
  9
$ORTHOMODE
 70
    0
  9
$REGENMODE
 70
    1
  9
$FILLMODE
 70
    1
  9
$QTEXTMODE
 70
    0
  9
$MIRRTEXT
 70
    0
  9
$LTSCALE
 40
1
  9
$ATTMODE
 70
    0
  9
$TEXTSIZE
 40
2.5
  9
$TRACEWID
 40
15.68
  9
$TEXTSTYLE
  7
STANDARD
  9
$CLAYER
  8
Drill Holes
  9
$CELTYPE
  6
BYLAYER
  9
$CECOLOR
 62
  256
  9
$CELTSCALE
 40
1
  9
$DISPSILH
 70
    0
  9
$DIMSCALE
 40
1
  9
$DIMASZ
 40
2.5
  9
$DIMEXO
 40
0.625
  9
$DIMDLI
 40
3.75
  9
$DIMRND
 40
0
  9
$DIMDLE
 40
0
  9
$DIMEXE
 40
1.25
  9
$DIMTP
 40
0
  9
$DIMTM
 40
0
  9
$DIMTXT
 40
2.5
  9
$DIMCEN
 40
2.5
  9
$DIMTSZ
 40
0
  9
$DIMTOL
 70
    0
  9
$DIMLIM
 70
    0
  9
$DIMTIH
 70
    0
  9
$DIMTOH
 70
    0
  9
$DIMSE1
 70
    0
  9
$DIMSE2
 70
    0
  9
$DIMTAD
 70
    1
  9
$DIMZIN
 70
    1
  9
$DIMBLK
  1

  9
$DIMASO
 70
    1
  9
$DIMSHO
 70
    1
  9
$DIMPOST
  1

  9
$DIMAPOST
  1

  9
$DIMALT
 70
    0
  9
$DIMALTD
 70
    3
  9
$DIMALTF
 40
0.03937
  9
$DIMLFAC
 40
1
  9
$DIMTOFL
 70
    1
  9
$DIMTVP
 40
0
  9
$DIMTIX
 70
    0
  9
$DIMSOXD
 70
    0
  9
$DIMSAH
 70
    0
  9
$DIMBLK1
  1

  9
$DIMBLK2
  1

  9
$DIMSTYLE
  2
STANDARD
  9
$DIMCLRD
 70
    0
  9
$DIMCLRE
 70
    0
  9
$DIMCLRT
 70
    0
  9
$DIMTFAC
 40
1
  9
$DIMGAP
 40
0.625
  9
$DIMJUST
 70
    0
  9
$DIMSD1
 70
    0
  9
$DIMSD2
 70
    0
  9
$DIMTOLJ
 70
    0
  9
$DIMTZIN
 70
    8
  9
$DIMALTZ
 70
    0
  9
$DIMALTTZ
 70
    0
  9
$DIMUPT
 70
    0
  9
$DIMDEC
 70
    4
  9
$DIMTDEC
 70
    2
  9
$DIMALTU
 70
    2
  9
$DIMALTTD
 70
    3
  9
$DIMTXSTY
  7
standard
  9
$DIMAUNIT
 70
    0
  9
$DIMADEC
 70
    2
  9
$DIMALTRND
 40
0
  9
$DIMAZIN
 70
    0
  9
$DIMDSEP
 70
    0
  9
$DIMATFIT
 70
    3
  9
$DIMFRAC
 70
    0
  9
$DIMLDRBLK
  1
STANDARD
  9
$DIMLUNIT
 70
    2
  9
$DIMLWD
 70
   -2
  9
$DIMLWE
 70
   -2
  9
$DIMTMOVE
 70
    0
  9
$DIMFXL
 40
1
  9
$DIMFXLON
 70
    0
  9
$DIMJOGANG
 40
0.7854
  9
$DIMTFILL
 70
    0
  9
$DIMTFILLCLR
 70
    0
  9
$DIMARCSYM
 70
    0
  9
$DIMLTYPE
  6

  9
$DIMLTEX1
  6

  9
$DIMLTEX2
  6

  9
$LUNITS
 70
    2
  9
$LUPREC
 70
    4
  9
$SKETCHINC
 40
1
  9
$FILLETRAD
 40
0
  9
$AUNITS
 70
    0
  9
$AUPREC
 70
    2
  9
$MENU
  1
.
  9
$ELEVATION
 40
0
  9
$PELEVATION
 40
0
  9
$THICKNESS
 40
0
  9
$LIMCHECK
 70
    0
  9
$CHAMFERA
 40
0
  9
$CHAMFERB
 40
0
  9
$CHAMFERC
 40
0
  9
$CHAMFERD
 40
0
  9
$SKPOLY
 70
    0
  9
$USRTIMER
 70
    1
  9
$ANGBASE
 50
0
  9
$ANGDIR
 70
    0
  9
$PDMODE
 70
   34
  9
$PDSIZE
 40
0
  9
$PLINEWID
 40
0
  9
$SPLFRAME
 70
    0
  9
$SPLINETYPE
 70
    2
  9
$SPLINESEGS
 70
    8
  9
$HANDSEED
  5
20000
  9
$SURFTAB1
 70
    6
  9
$SURFTAB2
 70
    6
  9
$SURFTYPE
 70
    6
  9
$SURFU
 70
    6
  9
$SURFV
 70
    6
  9
$UCSBASE
  2

  9
$UCSNAME
  2

  9
$UCSORG
 10
0
 20
0
 30
0
  9
$UCSXDIR
 10
1
 20
0
 30
0
  9
$UCSYDIR
 10
0
 20
1
 30
0
  9
$UCSORTHOREF
  2

  9
$UCSORTHOVIEW
 70
    0
  9
$UCSORGTOP
 10
0
 20
0
 30
0
  9
$UCSORGBOTTOM
 10
0
 20
0
 30
0
  9
$UCSORGLEFT
 10
0
 20
0
 30
0
  9
$UCSORGRIGHT
 10
0
 20
0
 30
0
  9
$UCSORGFRONT
 10
0
 20
0
 30
0
  9
$UCSORGBACK
 10
0
 20
0
 30
0
  9
$PUCSBASE
  2

  9
$PUCSNAME
  2

  9
$PUCSORG
 10
0
 20
0
 30
0
  9
$PUCSXDIR
 10
1
 20
0
 30
0
  9
$PUCSYDIR
 10
0
 20
1
 30
0
  9
$PUCSORTHOREF
  2

  9
$PUCSORTHOVIEW
 70
    0
  9
$PUCSORGTOP
 10
0
 20
0
 30
0
  9
$PUCSORGBOTTOM
 10
0
 20
0
 30
0
  9
$PUCSORGLEFT
 10
0
 20
0
 30
0
  9
$PUCSORGRIGHT
 10
0
 20
0
 30
0
  9
$PUCSORGFRONT
 10
0
 20
0
 30
0
  9
$PUCSORGBACK
 10
0
 20
0
 30
0
  9
$USERI1
 70
    0
  9
$USERI2
 70
    0
  9
$USERI3
 70
    0
  9
$USERI4
 70
    0
  9
$USERI5
 70
    0
  9
$USERR1
 40
0
  9
$USERR2
 40
0
  9
$USERR3
 40
0
  9
$USERR4
 40
0
  9
$USERR5
 40
0
  9
$WORLDVIEW
 70
    1
  9
$SHADEDGE
 70
    3
  9
$SHADEDIF
 70
   70
  9
$TILEMODE
 70
    1
  9
$MAXACTVP
 70
   64
  9
$PINSBASE
 10
12.50000000000003
 20
34.0734006354083
 30
0
  9
$PLIMCHECK
 70
    0
  9
$PEXTMIN
 10
0
 20
0
 30
0
  9
$PEXTMAX
 10
0
 20
0
 30
0
  9
$GRIDMODE
 70
    0
  9
$SNAPSTYLE
 70
    0
  9
$GRIDUNIT
 10
0
 20
0
  9
$PLIMMIN
 10
0
 20
0
  9
$PLIMMAX
 10
297
 20
210
  9
$UNITMODE
 70
    0
  9
$VISRETAIN
 70
    1
  9
$PLINEGEN
 70
    0
  9
$PSLTSCALE
 70
    1
  9
$TREEDEPTH
 70
 3020
  9
$CMLSTYLE
  2
Standard
  9
$CMLJUST
 70
    0
  9
$CMLSCALE
 40
20
  9
$PROXYGRAPHICS
 70
    1
  9
$MEASUREMENT
 70
    1
  9
$CELWEIGHT
370
   -1
  9
$ENDCAPS
280
    0
  9
$JOINSTYLE
280
    0
  9
$LWDISPLAY
290
    0
  9
$INSUNITS
 70
    4
  9
$HYPERLINKBASE
  1

  9
$STYLESHEET
  1

  9
$XEDIT
290
    1
  9
$CEPSNTYPE
380
    0
  9
$PSTYLEMODE
290
    1
  9
$EXTNAMES
290
    1
  9
$PSVPSCALE
 40
0.9330969487729774
  9
$OLESTARTUP
290
    0
  9
$SORTENTS
280
  127
  9
$INDEXCTL
280
    0
  9
$HIDETEXT
280
    1
  9
$XCLIPFRAME
290
    0
  9
$HALOGAP
280
    0
  9
$OBSCOLOR
 70
  257
  9
$OBSLTYPE
280
    0
  9
$INTERSECTIONDISPLAY
280
    0
  9
$INTERSECTIONCOLOR
 70
  257
  9
$DIMASSOC
280
    1
  9
$PROJECTNAME
  1

  9
$CAMERADISPLAY
290
    0
  9
$LENSLENGTH
 40
50
  9
$CAMERAHEIGHT
 40
0
  9
$STEPSPERSEC
 40
2
  9
$STEPSIZE
 40
50
  9
$3DDWFPREC
 40
2
  9
$PSOLWIDTH
 40
5
  9
$PSOLHEIGHT
 40
80
  9
$LOFTANG1
 40
1.570796326794897
  9
$LOFTANG2
 40
1.570796326794897
  9
$LOFTMAG1
 40
0
  9
$LOFTMAG2
 40
0
  9
$LOFTPARAM
 70
    7
  9
$LOFTNORMALS
280
    1
  9
$LATITUDE
 40
1
  9
$LONGITUDE
 40
1
  9
$NORTHDIRECTION
 40
0
  9
$TIMEZONE
 70
-8000
  9
$LIGHTGLYPHDISPLAY
280
    1
  9
$TILEMODELIGHTSYNCH
280
    1
  9
$SOLIDHIST
280
    1
  9
$SHOWHIST
280
    1
  9
$DWFFRAME
280
    2
  9
$DGNFRAME
280
    0
  9
$REALWORLDSCALE
290
    1
  9
$INTERFERECOLOR
 62
    1
  9
$CSHADOW
280
    0
  9
$SHADOWPLANELOCATION
 40
0
  0
ENDSEC
  0
SECTION
  2
CLASSES
  0
ENDSEC
  0
SECTION
  2
TABLES
  0
TABLE
  2
VPORT
  5
8
330
0
100
AcDbSymbolTable
 70
    1
  0
VPORT
  5
31
330
2
100
AcDbSymbolTableRecord
100
AcDbViewportTableRecord
  2
*ACTIVE
 70
    0
 10
0
 20
0
 11
1
 21
1
 12
225.3132771485624
 22
139.6396358842442
 13
0
 23
0
 14
10
 24
10
 15
10
 25
10
 16
0
 26
0
 36
1
 17
0
 27
0
 37
0
 40
356.1335676085386
 41
1.88561320754717
 42
50
 43
0
 44
0
 50
0
 51
0
 71
    0
 72
  100
 73
    1
 74
    3
 75
    0
 76
    0
 77
    0
 78
    0
281
    0
 65
    1
110
0
120
0
130
0
111
1
121
0
131
0
112
0
122
1
132
0
 79
    0
146
0
348
10020
 60
    7
 61
    5
292
1
282
    1
141
0
142
0
 63
  250
421
3358443
  0
ENDTAB
  0
TABLE
  2
LTYPE
  5
5
330
0
100
AcDbSymbolTable
 70
    4
  0
LTYPE
  5
14
330
5
100
AcDbSymbolTableRecord
100
AcDbLinetypeTableRecord
  2
ByBlock
 70
    0
  3

 72
   65
 73
    0
 40
0
  0
LTYPE
  5
15
330
5
100
AcDbSymbolTableRecord
100
AcDbLinetypeTableRecord
  2
ByLayer
 70
    0
  3

 72
   65
 73
    0
 40
0
  0
LTYPE
  5
16
330
5
100
AcDbSymbolTableRecord
100
AcDbLinetypeTableRecord
  2
Continuous
 70
    0
  3
Solid line
 72
   65
 73
    0
 40
0
  0
LTYPE
  5
32
330
5
100
AcDbSymbolTableRecord
100
AcDbLinetypeTableRecord
  2
DOT
 70
    0
  3
Dot . . . . . . . . . . . . . . . . . . . . . .
 72
   65
 73
    2
 40
6.35
 49
0
 74
    0
 49
-6.35
 74
    0
  0
LTYPE
  5
33
330
5
100
AcDbSymbolTableRecord
100
AcDbLinetypeTableRecord
  2
DOTTINY
 70
    0
  3
Dot (.15x) .....................................
 72
   65
 73
    2
 40
0.9525
 49
0
 74
    0
 49
-0.9525
 74
    0
  0
LTYPE
  5
34
330
5
100
AcDbSymbolTableRecord
100
AcDbLinetypeTableRecord
  2
DOT2
 70
    0
  3
Dot (.5x) .....................................
 72
   65
 73
    2
 40
3.175
 49
0
 74
    0
 49
-3.175
 74
    0
  0
LTYPE
  5
35
330
5
100
AcDbSymbolTableRecord
100
AcDbLinetypeTableRecord
  2
DOTX2
 70
    0
  3
Dot (2x) .  .  .  .  .  .  .  .  .  .  .  .  .
 72
   65
 73
    2
 40
12.7
 49
0
 74
    0
 49
-12.7
 74
    0
  0
LTYPE
  5
36
330
5
100
AcDbSymbolTableRecord
100
AcDbLinetypeTableRecord
  2
DASHED
 70
    0
  3
Dashed _ _ _ _ _ _ _ _ _ _ _ _ _ _ _ _ _
 72
   65
 73
    2
 40
19.05
 49
12.7
 74
    0
 49
-6.35
 74
    0
  0
LTYPE
  5
37
330
5
100
AcDbSymbolTableRecord
100
AcDbLinetypeTableRecord
  2
DASHEDTINY
 70
    0
  3
Dashed (.15x) _ _ _ _ _ _ _ _ _ _ _ _ _ _ _ _ _
 72
   65
 73
    2
 40
2.8575
 49
1.905
 74
    0
 49
-0.9525
 74
    0
  0
LTYPE
  5
38
330
5
100
AcDbSymbolTableRecord
100
AcDbLinetypeTableRecord
  2
DASHED2
 70
    0
  3
Dashed (.5x) _ _ _ _ _ _ _ _ _ _ _ _ _ _ _ _ _
 72
   65
 73
    2
 40
9.524999999999999
 49
6.35
 74
    0
 49
-3.175
 74
    0
  0
LTYPE
  5
39
330
5
100
AcDbSymbolTableRecord
100
AcDbLinetypeTableRecord
  2
DASHEDX2
 70
    0
  3
Dashed (2x) ____  ____  ____  ____  ____  ___
 72
   65
 73
    2
 40
38.09999999999999
 49
25.4
 74
    0
 49
-12.7
 74
    0
  0
LTYPE
  5
3A
330
5
100
AcDbSymbolTableRecord
100
AcDbLinetypeTableRecord
  2
DASHDOT
 70
    0
  3
Dash dot __ . __ . __ . __ . __ . __ . __ . __
 72
   65
 73
    4
 40
25.4
 49
12.7
 74
    0
 49
-6.35
 74
    0
 49
0
 74
    0
 49
-6.35
 74
    0
  0
LTYPE
  5
3B
330
5
100
AcDbSymbolTableRecord
100
AcDbLinetypeTableRecord
  2
DASHDOTTINY
 70
    0
  3
Dash dot (.15x) _._._._._._._._._._._._._._._.
 72
   65
 73
    4
 40
3.81
 49
1.905
 74
    0
 49
-0.9525
 74
    0
 49
0
 74
    0
 49
-0.9525
 74
    0
  0
LTYPE
  5
3C
330
5
100
AcDbSymbolTableRecord
100
AcDbLinetypeTableRecord
  2
DASHDOT2
 70
    0
  3
Dash dot (.5x) _._._._._._._._._._._._._._._.
 72
   65
 73
    4
 40
12.7
 49
6.35
 74
    0
 49
-3.175
 74
    0
 49
0
 74
    0
 49
-3.175
 74
    0
  0
LTYPE
  5
3D
330
5
100
AcDbSymbolTableRecord
100
AcDbLinetypeTableRecord
  2
DASHDOTX2
 70
    0
  3
Dash dot (2x) ____  .  ____  .  ____  .  ___
 72
   65
 73
    4
 40
50.8
 49
25.4
 74
    0
 49
-12.7
 74
    0
 49
0
 74
    0
 49
-12.7
 74
    0
  0
LTYPE
  5
3E
330
5
100
AcDbSymbolTableRecord
100
AcDbLinetypeTableRecord
  2
DIVIDE
 70
    0
  3
Divide ____ . . ____ . . ____ . . ____ . . ____
 72
   65
 73
    6
 40
31.75
 49
12.7
 74
    0
 49
-6.35
 74
    0
 49
0
 74
    0
 49
-6.35
 74
    0
 49
0
 74
    0
 49
-6.35
 74
    0
  0
LTYPE
  5
3F
330
5
100
AcDbSymbolTableRecord
100
AcDbLinetypeTableRecord
  2
DIVIDETINY
 70
    0
  3
Divide (.15x) __..__..__..__..__..__..__..__.._
 72
   65
 73
    6
 40
4.7625
 49
1.905
 74
    0
 49
-0.9525
 74
    0
 49
0
 74
    0
 49
-0.9525
 74
    0
 49
0
 74
    0
 49
-0.9525
 74
    0
  0
LTYPE
  5
40
330
5
100
AcDbSymbolTableRecord
100
AcDbLinetypeTableRecord
  2
DIVIDE2
 70
    0
  3
Divide (.5x) __..__..__..__..__..__..__..__.._
 72
   65
 73
    6
 40
15.875
 49
6.35
 74
    0
 49
-3.175
 74
    0
 49
0
 74
    0
 49
-3.175
 74
    0
 49
0
 74
    0
 49
-3.175
 74
    0
  0
LTYPE
  5
41
330
5
100
AcDbSymbolTableRecord
100
AcDbLinetypeTableRecord
  2
DIVIDEX2
 70
    0
  3
Divide (2x) ________  .  .  ________  .  .  _
 72
   65
 73
    6
 40
63.5
 49
25.4
 74
    0
 49
-12.7
 74
    0
 49
0
 74
    0
 49
-12.7
 74
    0
 49
0
 74
    0
 49
-12.7
 74
    0
  0
LTYPE
  5
42
330
5
100
AcDbSymbolTableRecord
100
AcDbLinetypeTableRecord
  2
BORDER
 70
    0
  3
Border __ __ . __ __ . __ __ . __ __ . __ __ .
 72
   65
 73
    6
 40
44.45
 49
12.7
 74
    0
 49
-6.35
 74
    0
 49
12.7
 74
    0
 49
-6.35
 74
    0
 49
0
 74
    0
 49
-6.35
 74
    0
  0
LTYPE
  5
43
330
5
100
AcDbSymbolTableRecord
100
AcDbLinetypeTableRecord
  2
BORDERTINY
 70
    0
  3
Border (.15x) __.__.__.__.__.__.__.__.__.__.__.
 72
   65
 73
    6
 40
6.6675
 49
1.905
 74
    0
 49
-0.9525
 74
    0
 49
1.905
 74
    0
 49
-0.9525
 74
    0
 49
0
 74
    0
 49
-0.9525
 74
    0
  0
LTYPE
  5
44
330
5
100
AcDbSymbolTableRecord
100
AcDbLinetypeTableRecord
  2
BORDER2
 70
    0
  3
Border (.5x) __.__.__.__.__.__.__.__.__.__.__.
 72
   65
 73
    6
 40
22.225
 49
6.35
 74
    0
 49
-3.175
 74
    0
 49
6.35
 74
    0
 49
-3.175
 74
    0
 49
0
 74
    0
 49
-3.175
 74
    0
  0
LTYPE
  5
45
330
5
100
AcDbSymbolTableRecord
100
AcDbLinetypeTableRecord
  2
BORDERX2
 70
    0
  3
Border (2x) ____  ____  .  ____  ____  .  ___
 72
   65
 73
    6
 40
88.89999999999999
 49
25.4
 74
    0
 49
-12.7
 74
    0
 49
25.4
 74
    0
 49
-12.7
 74
    0
 49
0
 74
    0
 49
-12.7
 74
    0
  0
LTYPE
  5
46
330
5
100
AcDbSymbolTableRecord
100
AcDbLinetypeTableRecord
  2
CENTER
 70
    0
  3
Center ____ _ ____ _ ____ _ ____ _ ____ _ ____
 72
   65
 73
    4
 40
50.8
 49
31.75
 74
    0
 49
-6.35
 74
    0
 49
6.35
 74
    0
 49
-6.35
 74
    0
  0
LTYPE
  5
47
330
5
100
AcDbSymbolTableRecord
100
AcDbLinetypeTableRecord
  2
CENTERTINY
 70
    0
  3
Center (.15x) ___ _ ___ _ ___ _ ___ _ ___ _ ___
 72
   65
 73
    4
 40
7.62
 49
4.7625
 74
    0
 49
-0.9525
 74
    0
 49
0.9525
 74
    0
 49
-0.9525
 74
    0
  0
LTYPE
  5
48
330
5
100
AcDbSymbolTableRecord
100
AcDbLinetypeTableRecord
  2
CENTER2
 70
    0
  3
Center (.5x) ___ _ ___ _ ___ _ ___ _ ___ _ ___
 72
   65
 73
    4
 40
28.575
 49
19.05
 74
    0
 49
-3.175
 74
    0
 49
3.175
 74
    0
 49
-3.175
 74
    0
  0
LTYPE
  5
49
330
5
100
AcDbSymbolTableRecord
100
AcDbLinetypeTableRecord
  2
CENTERX2
 70
    0
  3
Center (2x) ________  __  ________  __  _____
 72
   65
 73
    4
 40
101.6
 49
63.5
 74
    0
 49
-12.7
 74
    0
 49
12.7
 74
    0
 49
-12.7
 74
    0
  0
ENDTAB
  0
TABLE
  2
LAYER
  5
2
330
0
100
AcDbSymbolTable
 70
    1
  0
LAYER
  5
10
330
2
100
AcDbSymbolTableRecord
100
AcDbLayerTableRecord
  2
0
 70
    0
 62
    7
  6
CONTINUOUS
370
   25
390
F
  0
LAYER
  5
4A
330
2
100
AcDbSymbolTableRecord
100
AcDbLayerTableRecord
  2
Brackets
 70
    0
 62
    8
  6
CONTINUOUS
370
   25
390
F
  0
LAYER
  5
4B
330
2
100
AcDbSymbolTableRecord
100
AcDbLayerTableRecord
  2
Drill Holes
 70
    0
 62
    7
  6
CONTINUOUS
370
   25
390
F
  0
LAYER
  5
4C
330
2
100
AcDbSymbolTableRecord
100
AcDbLayerTableRecord
  2
Electronics
 70
    0
 62
    3
  6
CONTINUOUS
370
    0
390
F
  0
LAYER
  5
4D
330
2
100
AcDbSymbolTableRecord
100
AcDbLayerTableRecord
  2
Helping Lines
 70
    0
 62
    6
  6
DOTTINY
370
   25
390
F
  0
LAYER
  5
4E
330
2
100
AcDbSymbolTableRecord
100
AcDbLayerTableRecord
  2
Light
 70
    0
 62
    2
  6
CONTINUOUS
370
   25
390
F
  0
LAYER
  5
4F
330
2
100
AcDbSymbolTableRecord
100
AcDbLayerTableRecord
  2
Measurements
 70
    1
 62
    7
  6
CONTINUOUS
370
    0
390
F
  0
LAYER
  5
50
330
2
100
AcDbSymbolTableRecord
100
AcDbLayerTableRecord
  2
Optics
 70
    0
 62
    4
  6
CONTINUOUS
370
   25
390
F
  0
LAYER
  5
51
330
2
100
AcDbSymbolTableRecord
100
AcDbLayerTableRecord
  2
Optomechanics
 70
    0
 62
   96
420
32768
  6
CONTINUOUS
370
   25
390
F
  0
LAYER
  5
52
330
2
100
AcDbSymbolTableRecord
100
AcDbLayerTableRecord
  2
Posts
 70
    0
 62
    8
  6
CONTINUOUS
370
   25
390
F
  0
ENDTAB
  0
TABLE
  2
STYLE
  5
3
330
0
100
AcDbSymbolTable
 70
    3
  0
STYLE
  5
53
330
2
100
AcDbSymbolTableRecord
100
AcDbTextStyleTableRecord
  2
standard
 70
    0
 40
0
 41
1
 50
0
 71
    0
 42
1
  3
standard
  4

  0
ENDTAB
  0
TABLE
  2
VIEW
  5
6
330
0
100
AcDbSymbolTable
 70
    0
  0
ENDTAB
  0
TABLE
  2
UCS
  5
7
330
0
100
AcDbSymbolTable
 70
    0
  0
ENDTAB
  0
TABLE
  2
APPID
  5
9
330
0
100
AcDbSymbolTable
 70
    1
  0
APPID
  5
12
330
9
100
AcDbSymbolTableRecord
100
AcDbRegAppTableRecord
  2
ACAD
 70
    0
  0
APPID
  5
54
330
9
100
AcDbSymbolTableRecord
100
AcDbRegAppTableRecord
  2
LibreCad
 70
    0
  0
ENDTAB
  0
TABLE
  2
DIMSTYLE
  5
A
330
0
100
AcDbSymbolTable
 70
    1
100
AcDbDimStyleTable
 71
    1
  0
DIMSTYLE
105
55
330
A
100
AcDbSymbolTableRecord
100
AcDbDimStyleTableRecord
  2
Standard
 70
    0
 40
1
 41
2.5
 42
0.625
 43
0.38
 44
1.25
 45
0
 46
0
 47
0
 48
0
 49
1
140
2.5
141
0.09
142
0
143
25.4
144
1
145
0
146
1
147
0.625
148
0
 71
    0
 72
    0
 73
    0
 74
    1
 75
    0
 76
    0
 77
    0
 78
    1
 79
    0
170
    0
171
    2
172
    0
173
    0
174
    0
175
    0
176
    0
177
    0
178
    0
179
    2
271
    4
272
    4
273
    2
274
    2
275
    0
276
    0
277
    2
278
    0
279
    0
280
    0
281
    0
282
    0
283
    1
284
    0
285
    0
286
    0
288
    0
289
    3
340
standard
341

371
   -2
372
   -2
  0
ENDTAB
  0
TABLE
  2
BLOCK_RECORD
  5
1
330
0
100
AcDbSymbolTable
 70
    2
  0
BLOCK_RECORD
  5
1F
330
1
100
AcDbSymbolTableRecord
100
AcDbBlockTableRecord
  2
*Model_Space
 70
    0
280
    1
281
    0
  0
BLOCK_RECORD
  5
1E
330
1
100
AcDbSymbolTableRecord
100
AcDbBlockTableRecord
  2
*Paper_Space
 70
    0
280
    1
281
    0
  0
BLOCK_RECORD
  5
56
330
1
100
AcDbSymbolTableRecord
100
AcDbBlockTableRecord
  2
*D16
 70
    0
280
    1
281
    0
  0
BLOCK_RECORD
  5
59
330
1
100
AcDbSymbolTableRecord
100
AcDbBlockTableRecord
  2
*D10
 70
    0
280
    1
281
    0
  0
BLOCK_RECORD
  5
5C
330
1
100
AcDbSymbolTableRecord
100
AcDbBlockTableRecord
  2
*D30
 70
    0
280
    1
281
    0
  0
BLOCK_RECORD
  5
5F
330
1
100
AcDbSymbolTableRecord
100
AcDbBlockTableRecord
  2
*D18
 70
    0
280
    1
281
    0
  0
BLOCK_RECORD
  5
62
330
1
100
AcDbSymbolTableRecord
100
AcDbBlockTableRecord
  2
*D27
 70
    0
280
    1
281
    0
  0
BLOCK_RECORD
  5
65
330
1
100
AcDbSymbolTableRecord
100
AcDbBlockTableRecord
  2
*D26
 70
    0
280
    1
281
    0
  0
BLOCK_RECORD
  5
68
330
1
100
AcDbSymbolTableRecord
100
AcDbBlockTableRecord
  2
*D6
 70
    0
280
    1
281
    0
  0
BLOCK_RECORD
  5
6B
330
1
100
AcDbSymbolTableRecord
100
AcDbBlockTableRecord
  2
*D34
 70
    0
280
    1
281
    0
  0
BLOCK_RECORD
  5
6E
330
1
100
AcDbSymbolTableRecord
100
AcDbBlockTableRecord
  2
*D13
 70
    0
280
    1
281
    0
  0
BLOCK_RECORD
  5
71
330
1
100
AcDbSymbolTableRecord
100
AcDbBlockTableRecord
  2
*D7
 70
    0
280
    1
281
    0
  0
BLOCK_RECORD
  5
74
330
1
100
AcDbSymbolTableRecord
100
AcDbBlockTableRecord
  2
*D21
 70
    0
280
    1
281
    0
  0
BLOCK_RECORD
  5
77
330
1
100
AcDbSymbolTableRecord
100
AcDbBlockTableRecord
  2
*D23
 70
    0
280
    1
281
    0
  0
BLOCK_RECORD
  5
7A
330
1
100
AcDbSymbolTableRecord
100
AcDbBlockTableRecord
  2
*D1
 70
    0
280
    1
281
    0
  0
BLOCK_RECORD
  5
7D
330
1
100
AcDbSymbolTableRecord
100
AcDbBlockTableRecord
  2
*D31
 70
    0
280
    1
281
    0
  0
BLOCK_RECORD
  5
80
330
1
100
AcDbSymbolTableRecord
100
AcDbBlockTableRecord
  2
*D4
 70
    0
280
    1
281
    0
  0
BLOCK_RECORD
  5
83
330
1
100
AcDbSymbolTableRecord
100
AcDbBlockTableRecord
  2
*D11
 70
    0
280
    1
281
    0
  0
BLOCK_RECORD
  5
86
330
1
100
AcDbSymbolTableRecord
100
AcDbBlockTableRecord
  2
*D9
 70
    0
280
    1
281
    0
  0
BLOCK_RECORD
  5
89
330
1
100
AcDbSymbolTableRecord
100
AcDbBlockTableRecord
  2
*D19
 70
    0
280
    1
281
    0
  0
BLOCK_RECORD
  5
8C
330
1
100
AcDbSymbolTableRecord
100
AcDbBlockTableRecord
  2
*D33
 70
    0
280
    1
281
    0
  0
BLOCK_RECORD
  5
8F
330
1
100
AcDbSymbolTableRecord
100
AcDbBlockTableRecord
  2
*D17
 70
    0
280
    1
281
    0
  0
BLOCK_RECORD
  5
92
330
1
100
AcDbSymbolTableRecord
100
AcDbBlockTableRecord
  2
*D2
 70
    0
280
    1
281
    0
  0
BLOCK_RECORD
  5
95
330
1
100
AcDbSymbolTableRecord
100
AcDbBlockTableRecord
  2
*D24
 70
    0
280
    1
281
    0
  0
BLOCK_RECORD
  5
98
330
1
100
AcDbSymbolTableRecord
100
AcDbBlockTableRecord
  2
*D28
 70
    0
280
    1
281
    0
  0
BLOCK_RECORD
  5
9B
330
1
100
AcDbSymbolTableRecord
100
AcDbBlockTableRecord
  2
*D29
 70
    0
280
    1
281
    0
  0
BLOCK_RECORD
  5
9E
330
1
100
AcDbSymbolTableRecord
100
AcDbBlockTableRecord
  2
*D20
 70
    0
280
    1
281
    0
  0
BLOCK_RECORD
  5
A1
330
1
100
AcDbSymbolTableRecord
100
AcDbBlockTableRecord
  2
*D25
 70
    0
280
    1
281
    0
  0
BLOCK_RECORD
  5
A4
330
1
100
AcDbSymbolTableRecord
100
AcDbBlockTableRecord
  2
*D3
 70
    0
280
    1
281
    0
  0
BLOCK_RECORD
  5
A7
330
1
100
AcDbSymbolTableRecord
100
AcDbBlockTableRecord
  2
*D14
 70
    0
280
    1
281
    0
  0
BLOCK_RECORD
  5
AA
330
1
100
AcDbSymbolTableRecord
100
AcDbBlockTableRecord
  2
*D32
 70
    0
280
    1
281
    0
  0
BLOCK_RECORD
  5
AD
330
1
100
AcDbSymbolTableRecord
100
AcDbBlockTableRecord
  2
*D12
 70
    0
280
    1
281
    0
  0
BLOCK_RECORD
  5
B0
330
1
100
AcDbSymbolTableRecord
100
AcDbBlockTableRecord
  2
*D5
 70
    0
280
    1
281
    0
  0
BLOCK_RECORD
  5
B3
330
1
100
AcDbSymbolTableRecord
100
AcDbBlockTableRecord
  2
*D15
 70
    0
280
    1
281
    0
  0
BLOCK_RECORD
  5
B6
330
1
100
AcDbSymbolTableRecord
100
AcDbBlockTableRecord
  2
*D8
 70
    0
280
    1
281
    0
  0
BLOCK_RECORD
  5
B9
330
1
100
AcDbSymbolTableRecord
100
AcDbBlockTableRecord
  2
*D22
 70
    0
280
    1
281
    0
  0
BLOCK_RECORD
  5
BC
330
1
100
AcDbSymbolTableRecord
100
AcDbBlockTableRecord
  2
*D35
 70
    0
280
    1
281
    0
  0
ENDTAB
  0
ENDSEC
  0
SECTION
  2
BLOCKS
  0
BLOCK
  5
20
330
1F
100
AcDbEntity
  8
0
100
AcDbBlockBegin
  2
*Model_Space
 70
    0
 10
0
 20
0
 30
0
  3
*Model_Space
  1

  0
ENDBLK
  5
21
330
1F
100
AcDbEntity
  8
0
100
AcDbBlockEnd
  0
BLOCK
  5
1C
330
1B
100
AcDbEntity
  8
0
100
AcDbBlockBegin
  2
*Paper_Space
 70
    0
 10
0
 20
0
 30
0
  3
*Paper_Space
  1

  0
ENDBLK
  5
1D
330
1F
100
AcDbEntity
  8
0
100
AcDbBlockEnd
  0
BLOCK
  5
57
330
56
100
AcDbEntity
  8
0
100
AcDbBlockBegin
  2
*D16
 70
    1
 10
0
 20
0
  3
*D16
  1

  0
LINE
  5
BF
100
AcDbEntity
  8
Measurements
  6
ByBlock
 62
    0
370
   -2
100
AcDbLine
 10
261.6157476058297
 20
71.28752376265972
 11
279.4
 21
71.28752376265972
  0
SOLID
  5
C0
100
AcDbEntity
  8
Measurements
  6
ByBlock
 62
    0
370
   -2
100
AcDbTrace
 10
261.6157476058297
 20
71.28752376265972
 30
0
 11
264.1157476058297
 21
71.70380842043255
 31
0
 12
264.1157476058297
 22
70.87123910488688
 32
0
 13
264.1157476058297
 23
70.87123910488688
 33
0
  0
SOLID
  5
C1
100
AcDbEntity
  8
Measurements
  6
ByBlock
 62
    0
370
   -2
100
AcDbTrace
 10
279.4
 20
71.28752376265972
 30
0
 11
276.9
 21
70.87123910488688
 31
0
 12
276.9
 22
71.70380842043255
 32
0
 13
276.9
 23
71.70380842043255
 33
0
  0
MTEXT
  5
C2
100
AcDbEntity
  8
Measurements
  6
CONTINUOUS
 62
    0
370
   -2
100
AcDbMText
 10
270.5078738029148
 20
73.16252376265972
 30
0
 40
2.5
 41
11.38888888888905
 71
    5
 72
    1
  1
17.7843
  7
standard
210
0
220
0
230
1
 50
0
 73
    2
 44
1
  0
LINE
  5
C3
100
AcDbEntity
  8
Measurements
  6
ByBlock
 62
    0
370
   -2
100
AcDbLine
 10
261.6157476058297
 20
66.03572531528482
 11
261.6157476058297
 21
72.53752376265972
  0
LINE
  5
C4
100
AcDbEntity
  8
Measurements
  6
ByBlock
 62
    0
370
   -2
100
AcDbLine
 10
279.4
 20
66.03572531528482
 11
279.4
 21
72.53752376265972
  0
ENDBLK
  5
58
330
56
100
AcDbEntity
  8
0
100
AcDbBlockEnd
  0
BLOCK
  5
5A
330
59
100
AcDbEntity
  8
0
100
AcDbBlockBegin
  2
*D10
 70
    1
 10
0
 20
0
  3
*D10
  1

  0
LINE
  5
C5
100
AcDbEntity
  8
Measurements
  6
ByBlock
 62
    0
370
   -2
100
AcDbLine
 10
181.9668730454973
 20
182.7
 11
181.9668730454973
 21
195.4
  0
SOLID
  5
C6
100
AcDbEntity
  8
Measurements
  6
ByBlock
 62
    0
370
   -2
100
AcDbTrace
 10
181.9668730454973
 20
182.7
 30
0
 11
181.5505883877244
 21
185.2
 31
0
 12
182.3831577032701
 22
185.2
 32
0
 13
182.3831577032701
 23
185.2
 33
0
  0
SOLID
  5
C7
100
AcDbEntity
  8
Measurements
  6
ByBlock
 62
    0
370
   -2
100
AcDbTrace
 10
181.9668730454973
 20
195.4
 30
0
 11
182.3831577032701
 21
192.9
 31
0
 12
181.5505883877244
 22
192.9
 32
0
 13
181.5505883877244
 23
192.9
 33
0
  0
MTEXT
  5
C8
100
AcDbEntity
  8
Measurements
  6
CONTINUOUS
 62
    0
370
   -2
100
AcDbMText
 10
180.0918730454973
 20
189.05
 30
0
 40
2.5
 41
11.11111111111111
 71
    5
 72
    1
  1
12.7000
  7
standard
210
0
220
0
230
1
 50
90
 73
    2
 44
1
  0
LINE
  5
C9
100
AcDbEntity
  8
Measurements
  6
ByBlock
 62
    0
370
   -2
100
AcDbLine
 10
177.5323
 20
182.7
 11
183.2168730454973
 21
182.7
  0
LINE
  5
CA
100
AcDbEntity
  8
Measurements
  6
ByBlock
 62
    0
370
   -2
100
AcDbLine
 10
177.5323
 20
195.4
 11
183.2168730454973
 21
195.4
  0
ENDBLK
  5
5B
330
59
100
AcDbEntity
  8
0
100
AcDbBlockEnd
  0
BLOCK
  5
5D
330
5C
100
AcDbEntity
  8
0
100
AcDbBlockBegin
  2
*D30
 70
    1
 10
0
 20
0
  3
*D30
  1

  0
LINE
  5
CB
100
AcDbEntity
  8
Measurements
  6
ByBlock
 62
    0
370
   -2
100
AcDbLine
 10
0
 20
-5.226358047115816
 11
279.4
 21
-5.226358047115816
  0
SOLID
  5
CC
100
AcDbEntity
  8
Measurements
  6
ByBlock
 62
    0
370
   -2
100
AcDbTrace
 10
0
 20
-5.226358047115816
 30
0
 11
2.5
 21
-4.810073389342977
 31
0
 12
2.5
 22
-5.642642704888657
 32
0
 13
2.5
 23
-5.642642704888657
 33
0
  0
SOLID
  5
CD
100
AcDbEntity
  8
Measurements
  6
ByBlock
 62
    0
370
   -2
100
AcDbTrace
 10
279.4
 20
-5.226358047115816
 30
0
 11
276.9
 21
-5.642642704888657
 31
0
 12
276.9
 22
-4.810073389342976
 32
0
 13
276.9
 23
-4.810073389342976
 33
0
  0
MTEXT
  5
CE
100
AcDbEntity
  8
Measurements
  6
CONTINUOUS
 62
    0
370
   -2
100
AcDbMText
 10
139.7
 20
-3.351358047115816
 30
0
 40
2.5
 41
13.88888888888889
 71
    5
 72
    1
  1
279.4000
  7
standard
210
0
220
0
230
1
 50
0
 73
    2
 44
1
  0
LINE
  5
CF
100
AcDbEntity
  8
Measurements
  6
ByBlock
 62
    0
370
   -2
100
AcDbLine
 10
-1.148068456708479e-016
 20
-0.625
 11
-2.296136913416957e-016
 21
-6.476358047115816
  0
LINE
  5
D0
100
AcDbEntity
  8
Measurements
  6
ByBlock
 62
    0
370
   -2
100
AcDbLine
 10
279.4
 20
-0.625
 11
279.4
 21
-6.476358047115816
  0
ENDBLK
  5
5E
330
5C
100
AcDbEntity
  8
0
100
AcDbBlockEnd
  0
BLOCK
  5
60
330
5F
100
AcDbEntity
  8
0
100
AcDbBlockBegin
  2
*D18
 70
    1
 10
0
 20
0
  3
*D18
  1

  0
LINE
  5
D1
100
AcDbEntity
  8
Measurements
  6
ByBlock
 62
    0
370
   -2
100
AcDbLine
 10
169.8131062352728
 20
18.39678032584767
 11
279.4
 21
18.39678032584767
  0
SOLID
  5
D2
100
AcDbEntity
  8
Measurements
  6
ByBlock
 62
    0
370
   -2
100
AcDbTrace
 10
169.8131062352728
 20
18.39678032584767
 30
0
 11
172.3131062352728
 21
18.81306498362051
 31
0
 12
172.3131062352728
 22
17.98049566807483
 32
0
 13
172.3131062352728
 23
17.98049566807483
 33
0
  0
SOLID
  5
D3
100
AcDbEntity
  8
Measurements
  6
ByBlock
 62
    0
370
   -2
100
AcDbTrace
 10
279.4
 20
18.39678032584767
 30
0
 11
276.9
 21
17.98049566807483
 31
0
 12
276.9
 22
18.81306498362051
 32
0
 13
276.9
 23
18.81306498362051
 33
0
  0
MTEXT
  5
D4
100
AcDbEntity
  8
Measurements
  6
CONTINUOUS
 62
    0
370
   -2
100
AcDbMText
 10
224.6065531176364
 20
20.27178032584767
 30
0
 40
2.5
 41
13.05555555555587
 71
    5
 72
    1
  1
109.5869
  7
standard
210
0
220
0
230
1
 50
0
 73
    2
 44
1
  0
LINE
  5
D5
100
AcDbEntity
  8
Measurements
  6
ByBlock
 62
    0
370
   -2
100
AcDbLine
 10
169.8131062352728
 20
13.17223723556799
 11
169.8131062352728
 21
19.64678032584767
  0
LINE
  5
D6
100
AcDbEntity
  8
Measurements
  6
ByBlock
 62
    0
370
   -2
100
AcDbLine
 10
279.4
 20
13.17223723556799
 11
279.4
 21
19.64678032584767
  0
ENDBLK
  5
61
330
5F
100
AcDbEntity
  8
0
100
AcDbBlockEnd
  0
BLOCK
  5
63
330
62
100
AcDbEntity
  8
0
100
AcDbBlockBegin
  2
*D27
 70
    1
 10
0
 20
0
  3
*D27
  1

  0
LINE
  5
D7
100
AcDbEntity
  8
Measurements
  6
ByBlock
 62
    0
370
   -2
100
AcDbLine
 10
12.69999999999999
 20
146.5470796411275
 11
279.4
 21
146.5470796411275
  0
SOLID
  5
D8
100
AcDbEntity
  8
Measurements
  6
ByBlock
 62
    0
370
   -2
100
AcDbTrace
 10
12.69999999999999
 20
146.5470796411275
 30
0
 11
15.19999999999999
 21
146.9633642989004
 31
0
 12
15.19999999999999
 22
146.1307949833547
 32
0
 13
15.19999999999999
 23
146.1307949833547
 33
0
  0
SOLID
  5
D9
100
AcDbEntity
  8
Measurements
  6
ByBlock
 62
    0
370
   -2
100
AcDbTrace
 10
279.4
 20
146.5470796411275
 30
0
 11
276.9
 21
146.1307949833547
 31
0
 12
276.9
 22
146.9633642989004
 32
0
 13
276.9
 23
146.9633642989004
 33
0
  0
MTEXT
  5
DA
100
AcDbEntity
  8
Measurements
  6
CONTINUOUS
 62
    0
370
   -2
100
AcDbMText
 10
146.05
 20
148.4220796411275
 30
0
 40
2.5
 41
13.61111111111142
 71
    5
 72
    1
  1
266.7000
  7
standard
210
0
220
0
230
1
 50
0
 73
    2
 44
1
  0
LINE
  5
DB
100
AcDbEntity
  8
Measurements
  6
ByBlock
 62
    0
370
   -2
100
AcDbLine
 10
12.7
 20
145.525
 11
12.69999999999998
 21
147.7970796411275
  0
LINE
  5
DC
100
AcDbEntity
  8
Measurements
  6
ByBlock
 62
    0
370
   -2
100
AcDbLine
 10
279.4
 20
145.525
 11
279.4
 21
147.7970796411275
  0
ENDBLK
  5
64
330
62
100
AcDbEntity
  8
0
100
AcDbBlockEnd
  0
BLOCK
  5
66
330
65
100
AcDbEntity
  8
0
100
AcDbBlockBegin
  2
*D26
 70
    1
 10
0
 20
0
  3
*D26
  1

  0
LINE
  5
DD
100
AcDbEntity
  8
Measurements
  6
ByBlock
 62
    0
370
   -2
100
AcDbLine
 10
165.571022932629
 20
12.54723723556799
 11
165.571022932629
 21
152.4
  0
SOLID
  5
DE
100
AcDbEntity
  8
Measurements
  6
ByBlock
 62
    0
370
   -2
100
AcDbTrace
 10
165.571022932629
 20
12.54723723556799
 30
0
 11
165.1547382748562
 21
15.04723723556799
 31
0
 12
165.9873075904019
 22
15.04723723556799
 32
0
 13
165.9873075904019
 23
15.04723723556799
 33
0
  0
SOLID
  5
DF
100
AcDbEntity
  8
Measurements
  6
ByBlock
 62
    0
370
   -2
100
AcDbTrace
 10
165.571022932629
 20
152.4
 30
0
 11
165.9873075904019
 21
149.9
 31
0
 12
165.1547382748562
 22
149.9
 32
0
 13
165.1547382748562
 23
149.9
 33
0
  0
MTEXT
  5
E0
100
AcDbEntity
  8
Measurements
  6
CONTINUOUS
 62
    0
370
   -2
100
AcDbMText
 10
163.696022932629
 20
82.473618617784
 30
0
 40
2.5
 41
13.05555555555587
 71
    5
 72
    1
  1
139.8528
  7
standard
210
0
220
0
230
1
 50
90
 73
    2
 44
1
  0
LINE
  5
E1
100
AcDbEntity
  8
Measurements
  6
ByBlock
 62
    0
370
   -2
100
AcDbLine
 10
169.1881062352728
 20
12.54723723556799
 11
164.321022932629
 21
12.54723723556799
  0
LINE
  5
E2
100
AcDbEntity
  8
Measurements
  6
ByBlock
 62
    0
370
   -2
100
AcDbLine
 10
169.1881062352728
 20
152.4
 11
164.321022932629
 21
152.4
  0
ENDBLK
  5
67
330
65
100
AcDbEntity
  8
0
100
AcDbBlockEnd
  0
BLOCK
  5
69
330
68
100
AcDbEntity
  8
0
100
AcDbBlockBegin
  2
*D6
 70
    1
 10
0
 20
0
  3
*D6
  1

  0
LINE
  5
E3
100
AcDbEntity
  8
Measurements
  6
ByBlock
 62
    0
370
   -2
100
AcDbLine
 10
63.93807426879101
 20
262.4
 11
63.93807426879101
 21
287.8
  0
SOLID
  5
E4
100
AcDbEntity
  8
Measurements
  6
ByBlock
 62
    0
370
   -2
100
AcDbTrace
 10
63.93807426879101
 20
262.4
 30
0
 11
63.52178961101817
 21
264.9
 31
0
 12
64.35435892656385
 22
264.9
 32
0
 13
64.35435892656385
 23
264.9
 33
0
  0
SOLID
  5
E5
100
AcDbEntity
  8
Measurements
  6
ByBlock
 62
    0
370
   -2
100
AcDbTrace
 10
63.93807426879101
 20
287.8
 30
0
 11
64.35435892656385
 21
285.3
 31
0
 12
63.52178961101817
 22
285.3
 32
0
 13
63.52178961101817
 23
285.3
 33
0
  0
MTEXT
  5
E6
100
AcDbEntity
  8
Measurements
  6
CONTINUOUS
 62
    0
370
   -2
100
AcDbMText
 10
62.06307426879101
 20
275.1
 30
0
 40
2.5
 41
11.9444444444446
 71
    5
 72
    1
  1
25.4000
  7
standard
210
0
220
0
230
1
 50
90
 73
    2
 44
1
  0
LINE
  5
E7
100
AcDbEntity
  8
Measurements
  6
ByBlock
 62
    0
370
   -2
100
AcDbLine
 10
56.925
 20
262.4
 11
65.18807426879101
 21
262.4
  0
LINE
  5
E8
100
AcDbEntity
  8
Measurements
  6
ByBlock
 62
    0
370
   -2
100
AcDbLine
 10
56.925
 20
287.8
 11
65.18807426879101
 21
287.8
  0
ENDBLK
  5
6A
330
68
100
AcDbEntity
  8
0
100
AcDbBlockEnd
  0
BLOCK
  5
6C
330
6B
100
AcDbEntity
  8
0
100
AcDbBlockBegin
  2
*D34
 70
    1
 10
0
 20
0
  3
*D34
  1

  0
LINE
  5
E9
100
AcDbEntity
  8
Measurements
  6
ByBlock
 62
    0
370
   -2
100
AcDbLine
 10
-5.871719367938801
 20
182.7
 11
-5.871719367938796
 21
265.4696959478544
  0
SOLID
  5
EA
100
AcDbEntity
  8
Measurements
  6
ByBlock
 62
    0
370
   -2
100
AcDbTrace
 10
-5.871719367938801
 20
182.7
 30
0
 11
-6.288004025711641
 21
185.2
 31
0
 12
-5.45543471016596
 22
185.2
 32
0
 13
-5.45543471016596
 23
185.2
 33
0
  0
SOLID
  5
EB
100
AcDbEntity
  8
Measurements
  6
ByBlock
 62
    0
370
   -2
100
AcDbTrace
 10
-5.871719367938796
 20
265.4696959478544
 30
0
 11
-5.455434710165955
 21
262.9696959478544
 31
0
 12
-6.288004025711636
 22
262.9696959478544
 32
0
 13
-6.288004025711636
 23
262.9696959478544
 33
0
  0
MTEXT
  5
EC
100
AcDbEntity
  8
Measurements
  6
CONTINUOUS
 62
    0
370
   -2
100
AcDbMText
 10
-7.746719367938798
 20
224.0848479739272
 30
0
 40
2.5
 41
11.66666666666682
 71
    5
 72
    1
  1
82.7697
  7
standard
210
0
220
0
230
1
 50
90
 73
    2
 44
1
  0
LINE
  5
ED
100
AcDbEntity
  8
Measurements
  6
ByBlock
 62
    0
370
   -2
100
AcDbLine
 10
-0.6249999999999977
 20
182.7
 11
-7.121719367938801
 21
182.7
  0
LINE
  5
EE
100
AcDbEntity
  8
Measurements
  6
ByBlock
 62
    0
370
   -2
100
AcDbLine
 10
-0.6249999999999963
 20
265.4696959478544
 11
-7.121719367938796
 21
265.4696959478544
  0
ENDBLK
  5
6D
330
6B
100
AcDbEntity
  8
0
100
AcDbBlockEnd
  0
BLOCK
  5
6F
330
6E
100
AcDbEntity
  8
0
100
AcDbBlockBegin
  2
*D13
 70
    1
 10
0
 20
0
  3
*D13
  1

  0
LINE
  5
EF
100
AcDbEntity
  8
Measurements
  6
ByBlock
 62
    0
370
   -2
100
AcDbLine
 10
52.25771747074444
 20
144.9
 11
52.25771747074444
 21
152.4
  0
SOLID
  5
F0
100
AcDbEntity
  8
Measurements
  6
ByBlock
 62
    0
370
   -2
100
AcDbTrace
 10
52.25771747074444
 20
144.9
 30
0
 11
51.8414328129716
 21
147.4
 31
0
 12
52.67400212851728
 22
147.4
 32
0
 13
52.67400212851728
 23
147.4
 33
0
  0
SOLID
  5
F1
100
AcDbEntity
  8
Measurements
  6
ByBlock
 62
    0
370
   -2
100
AcDbTrace
 10
52.25771747074444
 20
152.4
 30
0
 11
52.67400212851728
 21
149.9
 31
0
 12
51.8414328129716
 22
149.9
 32
0
 13
51.8414328129716
 23
149.9
 33
0
  0
MTEXT
  5
F2
100
AcDbEntity
  8
Measurements
  6
CONTINUOUS
 62
    0
370
   -2
100
AcDbMText
 10
50.38271747074444
 20
157.8861111111112
 30
0
 40
2.5
 41
9.722222222222378
 71
    5
 72
    1
  1
7.5000
  7
standard
210
0
220
0
230
1
 50
90
 73
    2
 44
1
  0
LINE
  5
F3
100
AcDbEntity
  8
Measurements
  6
ByBlock
 62
    0
370
   -2
100
AcDbLine
 10
45.22865
 20
144.9
 11
53.50771747074444
 21
144.9
  0
LINE
  5
F4
100
AcDbEntity
  8
Measurements
  6
ByBlock
 62
    0
370
   -2
100
AcDbLine
 10
45.22865
 20
152.4
 11
53.50771747074444
 21
152.4
  0
ENDBLK
  5
70
330
6E
100
AcDbEntity
  8
0
100
AcDbBlockEnd
  0
BLOCK
  5
72
330
71
100
AcDbEntity
  8
0
100
AcDbBlockBegin
  2
*D7
 70
    1
 10
0
 20
0
  3
*D7
  1

  0
LINE
  5
F5
100
AcDbEntity
  8
Measurements
  6
ByBlock
 62
    0
370
   -2
100
AcDbLine
 10
25.4
 20
202.7870936379807
 11
4.665750208063261e-015
 21
202.7870936379807
  0
SOLID
  5
F6
100
AcDbEntity
  8
Measurements
  6
ByBlock
 62
    0
370
   -2
100
AcDbTrace
 10
25.4
 20
202.7870936379807
 30
0
 11
22.9
 21
202.3708089802078
 31
0
 12
22.9
 22
203.2033782957535
 32
0
 13
22.9
 23
203.2033782957535
 33
0
  0
SOLID
  5
F7
100
AcDbEntity
  8
Measurements
  6
ByBlock
 62
    0
370
   -2
100
AcDbTrace
 10
4.665750208063261e-015
 20
202.7870936379807
 30
0
 11
2.500000000000005
 21
203.2033782957535
 31
0
 12
2.500000000000005
 22
202.3708089802078
 32
0
 13
2.500000000000005
 23
202.3708089802078
 33
0
  0
MTEXT
  5
F8
100
AcDbEntity
  8
Measurements
  6
CONTINUOUS
 62
    0
370
   -2
100
AcDbMText
 10
12.7
 20
204.6620936379807
 30
0
 40
2.5
 41
11.9444444444446
 71
    5
 72
    1
  1
25.4000
  7
standard
210
0
220
0
230
1
 50
360
 73
    2
 44
1
  0
LINE
  5
F9
100
AcDbEntity
  8
Measurements
  6
ByBlock
 62
    0
370
   -2
100
AcDbLine
 10
25.4
 20
196.025
 11
25.4
 21
204.0370936379807
  0
LINE
  5
FA
100
AcDbEntity
  8
Measurements
  6
ByBlock
 62
    0
370
   -2
100
AcDbLine
 10
4.70401915662021e-015
 20
196.025
 11
4.74228810517716e-015
 21
204.0370936379807
  0
ENDBLK
  5
73
330
71
100
AcDbEntity
  8
0
100
AcDbBlockEnd
  0
BLOCK
  5
75
330
74
100
AcDbEntity
  8
0
100
AcDbBlockBegin
  2
*D21
 70
    1
 10
0
 20
0
  3
*D21
  1

  0
LINE
  5
FB
100
AcDbEntity
  8
Measurements
  6
ByBlock
 62
    0
370
   -2
100
AcDbLine
 10
174.0823
 20
137
 11
174.0823
 21
152.4
  0
SOLID
  5
FC
100
AcDbEntity
  8
Measurements
  6
ByBlock
 62
    0
370
   -2
100
AcDbTrace
 10
174.0823
 20
137
 30
0
 11
173.6660153422272
 21
139.5
 31
0
 12
174.4985846577729
 22
139.5
 32
0
 13
174.4985846577729
 23
139.5
 33
0
  0
SOLID
  5
FD
100
AcDbEntity
  8
Measurements
  6
ByBlock
 62
    0
370
   -2
100
AcDbTrace
 10
174.0823
 20
152.4
 30
0
 11
174.4985846577729
 21
149.9
 31
0
 12
173.6660153422272
 22
149.9
 32
0
 13
173.6660153422272
 23
149.9
 33
0
  0
MTEXT
  5
FE
100
AcDbEntity
  8
Measurements
  6
CONTINUOUS
 62
    0
370
   -2
100
AcDbMText
 10
172.2073
 20
144.7
 30
0
 40
2.5
 41
11.38888888888904
 71
    5
 72
    1
  1
15.4000
  7
standard
210
0
220
0
230
1
 50
90
 73
    2
 44
1
  0
LINE
  5
FF
100
AcDbEntity
  8
Measurements
  6
ByBlock
 62
    0
370
   -2
100
AcDbLine
 10
168.0073
 20
137
 11
175.3323
 21
137
  0
LINE
  5
100
100
AcDbEntity
  8
Measurements
  6
ByBlock
 62
    0
370
   -2
100
AcDbLine
 10
168.0073
 20
152.4
 11
175.3323
 21
152.4
  0
ENDBLK
  5
76
330
74
100
AcDbEntity
  8
0
100
AcDbBlockEnd
  0
BLOCK
  5
78
330
77
100
AcDbEntity
  8
0
100
AcDbBlockBegin
  2
*D23
 70
    1
 10
0
 20
0
  3
*D23
  1

  0
LINE
  5
101
100
AcDbEntity
  8
Measurements
  6
ByBlock
 62
    0
370
   -2
100
AcDbLine
 10
237.6947639828273
 20
131.1099474921152
 11
237.6947639828273
 21
152.4
  0
SOLID
  5
102
100
AcDbEntity
  8
Measurements
  6
ByBlock
 62
    0
370
   -2
100
AcDbTrace
 10
237.6947639828273
 20
131.1099474921152
 30
0
 11
237.2784793250545
 21
133.6099474921152
 31
0
 12
238.1110486406002
 22
133.6099474921152
 32
0
 13
238.1110486406002
 23
133.6099474921152
 33
0
  0
SOLID
  5
103
100
AcDbEntity
  8
Measurements
  6
ByBlock
 62
    0
370
   -2
100
AcDbTrace
 10
237.6947639828273
 20
152.4
 30
0
 11
238.1110486406002
 21
149.9
 31
0
 12
237.2784793250545
 22
149.9
 32
0
 13
237.2784793250545
 23
149.9
 33
0
  0
MTEXT
  5
104
100
AcDbEntity
  8
Measurements
  6
CONTINUOUS
 62
    0
370
   -2
100
AcDbMText
 10
235.8197639828273
 20
141.7549737460576
 30
0
 40
2.5
 41
10.55555555555556
 71
    5
 72
    1
  1
21.2901
  7
standard
210
0
220
0
230
1
 50
90
 73
    2
 44
1
  0
LINE
  5
105
100
AcDbEntity
  8
Measurements
  6
ByBlock
 62
    0
370
   -2
100
AcDbLine
 10
241.357282169564
 20
131.1099474921152
 11
236.4447639828273
 21
131.1099474921152
  0
LINE
  5
106
100
AcDbEntity
  8
Measurements
  6
ByBlock
 62
    0
370
   -2
100
AcDbLine
 10
241.357282169564
 20
152.4
 11
236.4447639828273
 21
152.4
  0
ENDBLK
  5
79
330
77
100
AcDbEntity
  8
0
100
AcDbBlockEnd
  0
BLOCK
  5
7B
330
7A
100
AcDbEntity
  8
0
100
AcDbBlockBegin
  2
*D1
 70
    1
 10
0
 20
0
  3
*D1
  1

  0
LINE
  5
107
100
AcDbEntity
  8
Measurements
  6
ByBlock
 62
    0
370
   -2
100
AcDbLine
 10
146.3473098901104
 20
182.7
 11
146.3473098901104
 21
220.8
  0
SOLID
  5
108
100
AcDbEntity
  8
Measurements
  6
ByBlock
 62
    0
370
   -2
100
AcDbTrace
 10
146.3473098901104
 20
182.7
 30
0
 11
145.9310252323376
 21
185.2
 31
0
 12
146.7635945478833
 22
185.2
 32
0
 13
146.7635945478833
 23
185.2
 33
0
  0
SOLID
  5
109
100
AcDbEntity
  8
Measurements
  6
ByBlock
 62
    0
370
   -2
100
AcDbTrace
 10
146.3473098901104
 20
220.8
 30
0
 11
146.7635945478833
 21
218.3
 31
0
 12
145.9310252323376
 22
218.3
 32
0
 13
145.9310252323376
 23
218.3
 33
0
  0
MTEXT
  5
10A
100
AcDbEntity
  8
Measurements
  6
CONTINUOUS
 62
    0
370
   -2
100
AcDbMText
 10
144.4723098901104
 20
201.75
 30
0
 40
2.5
 41
11.11111111111127
 71
    5
 72
    1
  1
38.1000
  7
standard
210
0
220
0
230
1
 50
90
 73
    2
 44
1
  0
LINE
  5
10B
100
AcDbEntity
  8
Measurements
  6
ByBlock
 62
    0
370
   -2
100
AcDbLine
 10
150.8823
 20
182.7
 11
145.0973098901104
 21
182.7
  0
LINE
  5
10C
100
AcDbEntity
  8
Measurements
  6
ByBlock
 62
    0
370
   -2
100
AcDbLine
 10
150.8823
 20
220.8
 11
145.0973098901104
 21
220.8
  0
ENDBLK
  5
7C
330
7A
100
AcDbEntity
  8
0
100
AcDbBlockEnd
  0
BLOCK
  5
7E
330
7D
100
AcDbEntity
  8
0
100
AcDbBlockBegin
  2
*D31
 70
    1
 10
0
 20
0
  3
*D31
  1

  0
LINE
  5
10D
100
AcDbEntity
  8
Measurements
  6
ByBlock
 62
    0
370
   -2
100
AcDbLine
 10
-4.609266335089737
 20
170
 11
-4.609266335089736
 21
182.7
  0
SOLID
  5
10E
100
AcDbEntity
  8
Measurements
  6
ByBlock
 62
    0
370
   -2
100
AcDbTrace
 10
-4.609266335089737
 20
170
 30
0
 11
-5.025550992862577
 21
172.5
 31
0
 12
-4.192981677316896
 22
172.5
 32
0
 13
-4.192981677316896
 23
172.5
 33
0
  0
SOLID
  5
10F
100
AcDbEntity
  8
Measurements
  6
ByBlock
 62
    0
370
   -2
100
AcDbTrace
 10
-4.609266335089736
 20
182.7
 30
0
 11
-4.192981677316896
 21
180.2
 31
0
 12
-5.025550992862577
 22
180.2
 32
0
 13
-5.025550992862577
 23
180.2
 33
0
  0
MTEXT
  5
110
100
AcDbEntity
  8
Measurements
  6
CONTINUOUS
 62
    0
370
   -2
100
AcDbMText
 10
-6.484266335089737
 20
176.35
 30
0
 40
2.5
 41
11.11111111111111
 71
    5
 72
    1
  1
12.7000
  7
standard
210
0
220
0
230
1
 50
90
 73
    2
 44
1
  0
LINE
  5
111
100
AcDbEntity
  8
Measurements
  6
ByBlock
 62
    0
370
   -2
100
AcDbLine
 10
-0.625
 20
170
 11
-5.859266335089737
 21
170
  0
LINE
  5
112
100
AcDbEntity
  8
Measurements
  6
ByBlock
 62
    0
370
   -2
100
AcDbLine
 10
-0.6249999999999977
 20
182.7
 11
-5.859266335089736
 21
182.7
  0
ENDBLK
  5
7F
330
7D
100
AcDbEntity
  8
0
100
AcDbBlockEnd
  0
BLOCK
  5
81
330
80
100
AcDbEntity
  8
0
100
AcDbBlockBegin
  2
*D4
 70
    1
 10
0
 20
0
  3
*D4
  1

  0
LINE
  5
113
100
AcDbEntity
  8
Measurements
  6
ByBlock
 62
    0
370
   -2
100
AcDbLine
 10
176.9073
 20
175.1438998121998
 11
151.5073
 21
175.1438998121998
  0
SOLID
  5
114
100
AcDbEntity
  8
Measurements
  6
ByBlock
 62
    0
370
   -2
100
AcDbTrace
 10
176.9073
 20
175.1438998121998
 30
0
 11
174.4073
 21
174.727615154427
 31
0
 12
174.4073
 22
175.5601844699727
 32
0
 13
174.4073
 23
175.5601844699727
 33
0
  0
SOLID
  5
115
100
AcDbEntity
  8
Measurements
  6
ByBlock
 62
    0
370
   -2
100
AcDbTrace
 10
151.5073
 20
175.1438998121998
 30
0
 11
154.0073
 21
175.5601844699727
 31
0
 12
154.0073
 22
174.727615154427
 32
0
 13
154.0073
 23
174.727615154427
 33
0
  0
MTEXT
  5
116
100
AcDbEntity
  8
Measurements
  6
CONTINUOUS
 62
    0
370
   -2
100
AcDbMText
 10
164.2073
 20
177.0188998121998
 30
0
 40
2.5
 41
11.9444444444446
 71
    5
 72
    1
  1
25.4000
  7
standard
210
0
220
0
230
1
 50
360
 73
    2
 44
1
  0
LINE
  5
117
100
AcDbEntity
  8
Measurements
  6
ByBlock
 62
    0
370
   -2
100
AcDbLine
 10
176.9073
 20
182.075
 11
176.9073
 21
173.8938998121998
  0
LINE
  5
118
100
AcDbEntity
  8
Measurements
  6
ByBlock
 62
    0
370
   -2
100
AcDbLine
 10
151.5073
 20
182.075
 11
151.5073
 21
173.8938998121998
  0
ENDBLK
  5
82
330
80
100
AcDbEntity
  8
0
100
AcDbBlockEnd
  0
BLOCK
  5
84
330
83
100
AcDbEntity
  8
0
100
AcDbBlockBegin
  2
*D11
 70
    1
 10
0
 20
0
  3
*D11
  1

  0
LINE
  5
119
100
AcDbEntity
  8
Measurements
  6
ByBlock
 62
    0
370
   -2
100
AcDbLine
 10
18.92279453677483
 20
152.4
 11
18.92279453677483
 21
144.9
  0
SOLID
  5
11A
100
AcDbEntity
  8
Measurements
  6
ByBlock
 62
    0
370
   -2
100
AcDbTrace
 10
18.92279453677483
 20
152.4
 30
0
 11
19.33907919454767
 21
149.9
 31
0
 12
18.50650987900199
 22
149.9
 32
0
 13
18.50650987900199
 23
149.9
 33
0
  0
SOLID
  5
11B
100
AcDbEntity
  8
Measurements
  6
ByBlock
 62
    0
370
   -2
100
AcDbTrace
 10
18.92279453677483
 20
144.9
 30
0
 11
18.50650987900199
 21
147.4
 31
0
 12
19.33907919454767
 22
147.4
 32
0
 13
19.33907919454767
 23
147.4
 33
0
  0
MTEXT
  5
11C
100
AcDbEntity
  8
Measurements
  6
CONTINUOUS
 62
    0
370
   -2
100
AcDbMText
 10
17.04779453677483
 20
157.8861111111112
 30
0
 40
2.5
 41
9.722222222222378
 71
    5
 72
    1
  1
7.5000
  7
standard
210
0
220
0
230
1
 50
90
 73
    2
 44
1
  0
LINE
  5
11D
100
AcDbEntity
  8
Measurements
  6
ByBlock
 62
    0
370
   -2
100
AcDbLine
 10
13.325
 20
152.4
 11
20.17279453677483
 21
152.4
  0
LINE
  5
11E
100
AcDbEntity
  8
Measurements
  6
ByBlock
 62
    0
370
   -2
100
AcDbLine
 10
13.325
 20
144.9
 11
20.17279453677483
 21
144.9
  0
ENDBLK
  5
85
330
83
100
AcDbEntity
  8
0
100
AcDbBlockEnd
  0
BLOCK
  5
87
330
86
100
AcDbEntity
  8
0
100
AcDbBlockBegin
  2
*D9
 70
    1
 10
0
 20
0
  3
*D9
  1

  0
LINE
  5
11F
100
AcDbEntity
  8
Measurements
  6
ByBlock
 62
    0
370
   -2
100
AcDbLine
 10
6.591885929602618
 20
267.1181869868897
 11
-3.765082340723225
 21
275.8087152426349
  0
LINE
  5
120
100
AcDbEntity
  8
Measurements
  6
ByBlock
 62
    0
370
   -2
100
AcDbLine
 10
-0.4787777769493576
 20
258.6916981125809
 11
-10.8357460472752
 21
267.3822263683261
  0
LINE
  5
121
100
AcDbEntity
  8
Measurements
  6
ByBlock
 62
    0
370
   -2
100
AcDbLine
 10
-2.807526786824503
 20
275.0052307305267
 11
-9.878190493376477
 21
266.5787418562179
  0
SOLID
  5
122
100
AcDbEntity
  8
Measurements
  6
ByBlock
 62
    0
370
   -2
100
AcDbTrace
 10
-2.807526786824503
 20
275.0052307305267
 30
0
 11
-4.095603262198281
 21
272.8225370026103
 31
0
 12
-4.733388359883421
 22
273.3577022428482
 32
0
 13
-4.733388359883421
 23
273.3577022428482
 33
0
  0
SOLID
  5
123
100
AcDbEntity
  8
Measurements
  6
ByBlock
 62
    0
370
   -2
100
AcDbTrace
 10
-9.878190493376477
 20
266.5787418562179
 30
0
 11
-8.590114018002696
 21
268.7614355841343
 31
0
 12
-7.952328920317557
 22
268.2262703438964
 32
0
 13
-7.952328920317557
 23
268.2262703438964
 33
0
  0
MTEXT
  5
124
100
AcDbEntity
  8
Measurements
  6
CONTINUOUS
 62
    0
370
   -2
100
AcDbMText
 10
-7.779191970948538
 20
271.9972130615346
 30
0
 40
2.5
 41
10.55555555555556
 71
    5
 72
    1
  1
11.0000
  7
standard
210
0
220
0
230
1
 50
49.99999999999994
 73
    2
 44
1
  0
ENDBLK
  5
88
330
86
100
AcDbEntity
  8
0
100
AcDbBlockEnd
  0
BLOCK
  5
8A
330
89
100
AcDbEntity
  8
0
100
AcDbBlockBegin
  2
*D19
 70
    1
 10
0
 20
0
  3
*D19
  1

  0
LINE
  5
125
100
AcDbEntity
  8
Measurements
  6
ByBlock
 62
    0
370
   -2
100
AcDbLine
 10
76.50729999999999
 20
128.568407959049
 11
279.4
 21
128.568407959049
  0
SOLID
  5
126
100
AcDbEntity
  8
Measurements
  6
ByBlock
 62
    0
370
   -2
100
AcDbTrace
 10
76.50729999999999
 20
128.568407959049
 30
0
 11
79.00729999999999
 21
128.9846926168219
 31
0
 12
79.00729999999999
 22
128.1521233012762
 32
0
 13
79.00729999999999
 23
128.1521233012762
 33
0
  0
SOLID
  5
127
100
AcDbEntity
  8
Measurements
  6
ByBlock
 62
    0
370
   -2
100
AcDbTrace
 10
279.4
 20
128.568407959049
 30
0
 11
276.9
 21
128.1521233012762
 31
0
 12
276.9
 22
128.9846926168219
 32
0
 13
276.9
 23
128.9846926168219
 33
0
  0
MTEXT
  5
128
100
AcDbEntity
  8
Measurements
  6
CONTINUOUS
 62
    0
370
   -2
100
AcDbMText
 10
177.95365
 20
130.443407959049
 30
0
 40
2.5
 41
13.61111111111111
 71
    5
 72
    1
  1
202.8927
  7
standard
210
0
220
0
230
1
 50
0
 73
    2
 44
1
  0
LINE
  5
129
100
AcDbEntity
  8
Measurements
  6
ByBlock
 62
    0
370
   -2
100
AcDbLine
 10
76.5073
 20
125.325
 11
76.50729999999999
 21
129.818407959049
  0
LINE
  5
12A
100
AcDbEntity
  8
Measurements
  6
ByBlock
 62
    0
370
   -2
100
AcDbLine
 10
279.4
 20
125.325
 11
279.4
 21
129.818407959049
  0
ENDBLK
  5
8B
330
89
100
AcDbEntity
  8
0
100
AcDbBlockEnd
  0
BLOCK
  5
8D
330
8C
100
AcDbEntity
  8
0
100
AcDbBlockBegin
  2
*D33
 70
    1
 10
0
 20
0
  3
*D33
  1

  0
LINE
  5
12B
100
AcDbEntity
  8
Measurements
  6
ByBlock
 62
    0
370
   -2
100
AcDbLine
 10
-15.80847522137369
 20
182.7
 11
-15.80847522137368
 21
287.8
  0
SOLID
  5
12C
100
AcDbEntity
  8
Measurements
  6
ByBlock
 62
    0
370
   -2
100
AcDbTrace
 10
-15.80847522137369
 20
182.7
 30
0
 11
-16.22475987914653
 21
185.2
 31
0
 12
-15.39219056360084
 22
185.2
 32
0
 13
-15.39219056360084
 23
185.2
 33
0
  0
SOLID
  5
12D
100
AcDbEntity
  8
Measurements
  6
ByBlock
 62
    0
370
   -2
100
AcDbTrace
 10
-15.80847522137368
 20
287.8
 30
0
 11
-15.39219056360084
 21
285.3
 31
0
 12
-16.22475987914652
 22
285.3
 32
0
 13
-16.22475987914652
 23
285.3
 33
0
  0
MTEXT
  5
12E
100
AcDbEntity
  8
Measurements
  6
CONTINUOUS
 62
    0
370
   -2
100
AcDbMText
 10
-17.68347522137368
 20
235.25
 30
0
 40
2.5
 41
12.50000000000015
 71
    5
 72
    1
  1
105.1000
  7
standard
210
0
220
0
230
1
 50
90
 73
    2
 44
1
  0
LINE
  5
12F
100
AcDbEntity
  8
Measurements
  6
ByBlock
 62
    0
370
   -2
100
AcDbLine
 10
-0.6249999999999977
 20
182.7
 11
-17.05847522137368
 21
182.7
  0
LINE
  5
130
100
AcDbEntity
  8
Measurements
  6
ByBlock
 62
    0
370
   -2
100
AcDbLine
 10
-0.6249999999999916
 20
287.8
 11
-17.05847522137368
 21
287.8
  0
ENDBLK
  5
8E
330
8C
100
AcDbEntity
  8
0
100
AcDbBlockEnd
  0
BLOCK
  5
90
330
8F
100
AcDbEntity
  8
0
100
AcDbBlockBegin
  2
*D17
 70
    1
 10
0
 20
0
  3
*D17
  1

  0
LINE
  5
131
100
AcDbEntity
  8
Measurements
  6
ByBlock
 62
    0
370
   -2
100
AcDbLine
 10
156.7253005263038
 20
79.85875095992965
 11
279.4
 21
79.85875095992965
  0
SOLID
  5
132
100
AcDbEntity
  8
Measurements
  6
ByBlock
 62
    0
370
   -2
100
AcDbTrace
 10
156.7253005263038
 20
79.85875095992965
 30
0
 11
159.2253005263038
 21
80.27503561770249
 31
0
 12
159.2253005263038
 22
79.44246630215682
 32
0
 13
159.2253005263038
 23
79.44246630215682
 33
0
  0
SOLID
  5
133
100
AcDbEntity
  8
Measurements
  6
ByBlock
 62
    0
370
   -2
100
AcDbTrace
 10
279.4
 20
79.85875095992965
 30
0
 11
276.9
 21
79.44246630215682
 31
0
 12
276.9
 22
80.27503561770249
 32
0
 13
276.9
 23
80.27503561770249
 33
0
  0
MTEXT
  5
134
100
AcDbEntity
  8
Measurements
  6
CONTINUOUS
 62
    0
370
   -2
100
AcDbMText
 10
218.0626502631519
 20
81.73375095992965
 30
0
 40
2.5
 41
13.33333333333349
 71
    5
 72
    1
  1
122.6747
  7
standard
210
0
220
0
230
1
 50
0
 73
    2
 44
1
  0
LINE
  5
135
100
AcDbEntity
  8
Measurements
  6
ByBlock
 62
    0
370
   -2
100
AcDbLine
 10
156.7253005263038
 20
75.28821554562283
 11
156.7253005263038
 21
81.10875095992965
  0
LINE
  5
136
100
AcDbEntity
  8
Measurements
  6
ByBlock
 62
    0
370
   -2
100
AcDbLine
 10
279.4
 20
75.28821554562283
 11
279.4
 21
81.10875095992965
  0
ENDBLK
  5
91
330
8F
100
AcDbEntity
  8
0
100
AcDbBlockEnd
  0
BLOCK
  5
93
330
92
100
AcDbEntity
  8
0
100
AcDbBlockBegin
  2
*D2
 70
    1
 10
0
 20
0
  3
*D2
  1

  0
LINE
  5
137
100
AcDbEntity
  8
Measurements
  6
ByBlock
 62
    0
370
   -2
100
AcDbLine
 10
146.4456222526104
 20
220.8
 11
146.4456222526104
 21
246.2
  0
SOLID
  5
138
100
AcDbEntity
  8
Measurements
  6
ByBlock
 62
    0
370
   -2
100
AcDbTrace
 10
146.4456222526104
 20
220.8
 30
0
 11
146.0293375948376
 21
223.3
 31
0
 12
146.8619069103833
 22
223.3
 32
0
 13
146.8619069103833
 23
223.3
 33
0
  0
SOLID
  5
139
100
AcDbEntity
  8
Measurements
  6
ByBlock
 62
    0
370
   -2
100
AcDbTrace
 10
146.4456222526104
 20
246.2
 30
0
 11
146.8619069103833
 21
243.7
 31
0
 12
146.0293375948376
 22
243.7
 32
0
 13
146.0293375948376
 23
243.7
 33
0
  0
MTEXT
  5
13A
100
AcDbEntity
  8
Measurements
  6
CONTINUOUS
 62
    0
370
   -2
100
AcDbMText
 10
144.5706222526104
 20
233.5
 30
0
 40
2.5
 41
11.9444444444446
 71
    5
 72
    1
  1
25.4000
  7
standard
210
0
220
0
230
1
 50
90
 73
    2
 44
1
  0
LINE
  5
13B
100
AcDbEntity
  8
Measurements
  6
ByBlock
 62
    0
370
   -2
100
AcDbLine
 10
150.8823
 20
220.8
 11
145.1956222526104
 21
220.8
  0
LINE
  5
13C
100
AcDbEntity
  8
Measurements
  6
ByBlock
 62
    0
370
   -2
100
AcDbLine
 10
150.8823
 20
246.2
 11
145.1956222526104
 21
246.2
  0
ENDBLK
  5
94
330
92
100
AcDbEntity
  8
0
100
AcDbBlockEnd
  0
BLOCK
  5
96
330
95
100
AcDbEntity
  8
0
100
AcDbBlockBegin
  2
*D24
 70
    1
 10
0
 20
0
  3
*D24
  1

  0
LINE
  5
13D
100
AcDbEntity
  8
Measurements
  6
ByBlock
 62
    0
370
   -2
100
AcDbLine
 10
259.4144730454763
 20
65.41072531528482
 11
259.4144730454763
 21
152.4
  0
SOLID
  5
13E
100
AcDbEntity
  8
Measurements
  6
ByBlock
 62
    0
370
   -2
100
AcDbTrace
 10
259.4144730454763
 20
65.41072531528482
 30
0
 11
258.9981883877035
 21
67.91072531528482
 31
0
 12
259.8307577032492
 22
67.91072531528482
 32
0
 13
259.8307577032492
 23
67.91072531528482
 33
0
  0
SOLID
  5
13F
100
AcDbEntity
  8
Measurements
  6
ByBlock
 62
    0
370
   -2
100
AcDbTrace
 10
259.4144730454763
 20
152.4
 30
0
 11
259.8307577032492
 21
149.9
 31
0
 12
258.9981883877035
 22
149.9
 32
0
 13
258.9981883877035
 23
149.9
 33
0
  0
MTEXT
  5
140
100
AcDbEntity
  8
Measurements
  6
CONTINUOUS
 62
    0
370
   -2
100
AcDbMText
 10
257.5394730454763
 20
108.9053626576424
 30
0
 40
2.5
 41
11.66666666666698
 71
    5
 72
    1
  1
86.9893
  7
standard
210
0
220
0
230
1
 50
90
 73
    2
 44
1
  0
LINE
  5
141
100
AcDbEntity
  8
Measurements
  6
ByBlock
 62
    0
370
   -2
100
AcDbLine
 10
260.9907476058297
 20
65.41072531528482
 11
258.1644730454763
 21
65.41072531528482
  0
LINE
  5
142
100
AcDbEntity
  8
Measurements
  6
ByBlock
 62
    0
370
   -2
100
AcDbLine
 10
260.9907476058297
 20
152.4
 11
258.1644730454763
 21
152.4
  0
ENDBLK
  5
97
330
95
100
AcDbEntity
  8
0
100
AcDbBlockEnd
  0
BLOCK
  5
99
330
98
100
AcDbEntity
  8
0
100
AcDbBlockBegin
  2
*D28
 70
    1
 10
0
 20
0
  3
*D28
  1

  0
LINE
  5
143
100
AcDbEntity
  8
Measurements
  6
ByBlock
 62
    0
370
   -2
100
AcDbLine
 10
44.60365000000002
 20
99.92796586085439
 11
279.4
 21
99.92796586085439
  0
SOLID
  5
144
100
AcDbEntity
  8
Measurements
  6
ByBlock
 62
    0
370
   -2
100
AcDbTrace
 10
44.60365000000002
 20
99.92796586085439
 30
0
 11
47.10365000000002
 21
100.3442505186272
 31
0
 12
47.10365000000002
 22
99.51168120308155
 32
0
 13
47.10365000000002
 23
99.51168120308155
 33
0
  0
SOLID
  5
145
100
AcDbEntity
  8
Measurements
  6
ByBlock
 62
    0
370
   -2
100
AcDbTrace
 10
279.4
 20
99.92796586085439
 30
0
 11
276.9
 21
99.51168120308155
 31
0
 12
276.9
 22
100.3442505186272
 32
0
 13
276.9
 23
100.3442505186272
 33
0
  0
MTEXT
  5
146
100
AcDbEntity
  8
Measurements
  6
CONTINUOUS
 62
    0
370
   -2
100
AcDbMText
 10
162.001825
 20
101.8029658608544
 30
0
 40
2.5
 41
13.88888888888935
 71
    5
 72
    1
  1
234.7963
  7
standard
210
0
220
0
230
1
 50
0
 73
    2
 44
1
  0
LINE
  5
147
100
AcDbEntity
  8
Measurements
  6
ByBlock
 62
    0
370
   -2
100
AcDbLine
 10
44.60365
 20
103.875
 11
44.60365000000002
 21
98.67796586085439
  0
LINE
  5
148
100
AcDbEntity
  8
Measurements
  6
ByBlock
 62
    0
370
   -2
100
AcDbLine
 10
279.4
 20
103.875
 11
279.4
 21
98.67796586085439
  0
ENDBLK
  5
9A
330
98
100
AcDbEntity
  8
0
100
AcDbBlockEnd
  0
BLOCK
  5
9C
330
9B
100
AcDbEntity
  8
0
100
AcDbBlockBegin
  2
*D29
 70
    1
 10
0
 20
0
  3
*D29
  1

  0
LINE
  5
149
100
AcDbEntity
  8
Measurements
  6
ByBlock
 62
    0
370
   -2
100
AcDbLine
 10
-5.226358047115826
 20
0
 11
-5.226358047115816
 21
152.4
  0
SOLID
  5
14A
100
AcDbEntity
  8
Measurements
  6
ByBlock
 62
    0
370
   -2
100
AcDbTrace
 10
-5.226358047115826
 20
0
 30
0
 11
-5.642642704888666
 21
2.5
 31
0
 12
-4.810073389342985
 22
2.5
 32
0
 13
-4.810073389342985
 23
2.5
 33
0
  0
SOLID
  5
14B
100
AcDbEntity
  8
Measurements
  6
ByBlock
 62
    0
370
   -2
100
AcDbTrace
 10
-5.226358047115816
 20
152.4
 30
0
 11
-4.810073389342976
 21
149.9
 31
0
 12
-5.642642704888657
 22
149.9
 32
0
 13
-5.642642704888657
 23
149.9
 33
0
  0
MTEXT
  5
14C
100
AcDbEntity
  8
Measurements
  6
CONTINUOUS
 62
    0
370
   -2
100
AcDbMText
 10
-7.101358047115822
 20
76.2
 30
0
 40
2.5
 41
13.33333333333349
 71
    5
 72
    1
  1
152.4000
  7
standard
210
0
220
0
230
1
 50
90
 73
    2
 44
1
  0
LINE
  5
14D
100
AcDbEntity
  8
Measurements
  6
ByBlock
 62
    0
370
   -2
100
AcDbLine
 10
-0.625
 20
7.653789711389858e-017
 11
-6.476358047115826
 21
1.530757942277972e-016
  0
LINE
  5
14E
100
AcDbEntity
  8
Measurements
  6
ByBlock
 62
    0
370
   -2
100
AcDbLine
 10
-0.6250000000000009
 20
152.4
 11
-6.476358047115816
 21
152.4
  0
ENDBLK
  5
9D
330
9B
100
AcDbEntity
  8
0
100
AcDbBlockEnd
  0
BLOCK
  5
9F
330
9E
100
AcDbEntity
  8
0
100
AcDbBlockBegin
  2
*D20
 70
    1
 10
0
 20
0
  3
*D20
  1

  0
LINE
  5
14F
100
AcDbEntity
  8
Measurements
  6
ByBlock
 62
    0
370
   -2
100
AcDbLine
 10
167.3823
 20
116.652311611625
 11
279.4
 21
116.652311611625
  0
SOLID
  5
150
100
AcDbEntity
  8
Measurements
  6
ByBlock
 62
    0
370
   -2
100
AcDbTrace
 10
167.3823
 20
116.652311611625
 30
0
 11
169.8823
 21
117.0685962693978
 31
0
 12
169.8823
 22
116.2360269538522
 32
0
 13
169.8823
 23
116.2360269538522
 33
0
  0
SOLID
  5
151
100
AcDbEntity
  8
Measurements
  6
ByBlock
 62
    0
370
   -2
100
AcDbTrace
 10
279.4
 20
116.652311611625
 30
0
 11
276.9
 21
116.2360269538522
 31
0
 12
276.9
 22
117.0685962693978
 32
0
 13
276.9
 23
117.0685962693978
 33
0
  0
MTEXT
  5
152
100
AcDbEntity
  8
Measurements
  6
CONTINUOUS
 62
    0
370
   -2
100
AcDbMText
 10
223.39115
 20
118.527311611625
 30
0
 40
2.5
 41
11.94444444444444
 71
    5
 72
    1
  1
112.0177
  7
standard
210
0
220
0
230
1
 50
0
 73
    2
 44
1
  0
LINE
  5
153
100
AcDbEntity
  8
Measurements
  6
ByBlock
 62
    0
370
   -2
100
AcDbLine
 10
167.3823
 20
113.025
 11
167.3823
 21
117.902311611625
  0
LINE
  5
154
100
AcDbEntity
  8
Measurements
  6
ByBlock
 62
    0
370
   -2
100
AcDbLine
 10
279.4
 20
113.025
 11
279.4
 21
117.902311611625
  0
ENDBLK
  5
A0
330
9E
100
AcDbEntity
  8
0
100
AcDbBlockEnd
  0
BLOCK
  5
A2
330
A1
100
AcDbEntity
  8
0
100
AcDbBlockBegin
  2
*D25
 70
    1
 10
0
 20
0
  3
*D25
  1

  0
LINE
  5
155
100
AcDbEntity
  8
Measurements
  6
ByBlock
 62
    0
370
   -2
100
AcDbLine
 10
151.5643833663586
 20
74.66321554562283
 11
151.5643833663586
 21
152.4
  0
SOLID
  5
156
100
AcDbEntity
  8
Measurements
  6
ByBlock
 62
    0
370
   -2
100
AcDbTrace
 10
151.5643833663586
 20
74.66321554562283
 30
0
 11
151.1480987085858
 21
77.16321554562283
 31
0
 12
151.9806680241315
 22
77.16321554562283
 32
0
 13
151.9806680241315
 23
77.16321554562283
 33
0
  0
SOLID
  5
157
100
AcDbEntity
  8
Measurements
  6
ByBlock
 62
    0
370
   -2
100
AcDbTrace
 10
151.5643833663586
 20
152.4
 30
0
 11
151.9806680241315
 21
149.9
 31
0
 12
151.1480987085858
 22
149.9
 32
0
 13
151.1480987085858
 23
149.9
 33
0
  0
MTEXT
  5
158
100
AcDbEntity
  8
Measurements
  6
CONTINUOUS
 62
    0
370
   -2
100
AcDbMText
 10
149.6893833663586
 20
113.5316077728114
 30
0
 40
2.5
 41
11.66666666666698
 71
    5
 72
    1
  1
77.7368
  7
standard
210
0
220
0
230
1
 50
90
 73
    2
 44
1
  0
LINE
  5
159
100
AcDbEntity
  8
Measurements
  6
ByBlock
 62
    0
370
   -2
100
AcDbLine
 10
156.1003005263038
 20
74.66321554562283
 11
150.3143833663586
 21
74.66321554562283
  0
LINE
  5
15A
100
AcDbEntity
  8
Measurements
  6
ByBlock
 62
    0
370
   -2
100
AcDbLine
 10
156.1003005263038
 20
152.4
 11
150.3143833663586
 21
152.4
  0
ENDBLK
  5
A3
330
A1
100
AcDbEntity
  8
0
100
AcDbBlockEnd
  0
BLOCK
  5
A5
330
A4
100
AcDbEntity
  8
0
100
AcDbBlockBegin
  2
*D3
 70
    1
 10
0
 20
0
  3
*D3
  1

  0
LINE
  5
15B
100
AcDbEntity
  8
Measurements
  6
ByBlock
 62
    0
370
   -2
100
AcDbLine
 10
151.5073
 20
269.0463521211503
 11
157.8573
 21
269.0463521211503
  0
SOLID
  5
15C
100
AcDbEntity
  8
Measurements
  6
ByBlock
 62
    0
370
   -2
100
AcDbTrace
 10
151.5073
 20
269.0463521211503
 30
0
 11
154.0073
 21
269.4626367789231
 31
0
 12
154.0073
 22
268.6300674633774
 32
0
 13
154.0073
 23
268.6300674633774
 33
0
  0
SOLID
  5
15D
100
AcDbEntity
  8
Measurements
  6
ByBlock
 62
    0
370
   -2
100
AcDbTrace
 10
157.8573
 20
269.0463521211503
 30
0
 11
155.3573
 21
268.6300674633774
 31
0
 12
155.3573
 22
269.4626367789231
 32
0
 13
155.3573
 23
269.4626367789231
 33
0
  0
MTEXT
  5
15E
100
AcDbEntity
  8
Measurements
  6
CONTINUOUS
 62
    0
370
   -2
100
AcDbMText
 10
163.3434111111114
 20
270.9213521211503
 30
0
 40
2.5
 41
9.722222222222687
 71
    5
 72
    1
  1
6.3500
  7
standard
210
0
220
0
230
1
 50
0
 73
    2
 44
1
  0
LINE
  5
15F
100
AcDbEntity
  8
Measurements
  6
ByBlock
 62
    0
370
   -2
100
AcDbLine
 10
151.5073
 20
264.625
 11
151.5073
 21
270.2963521211503
  0
LINE
  5
160
100
AcDbEntity
  8
Measurements
  6
ByBlock
 62
    0
370
   -2
100
AcDbLine
 10
157.8573
 20
264.625
 11
157.8573
 21
270.2963521211503
  0
ENDBLK
  5
A6
330
A4
100
AcDbEntity
  8
0
100
AcDbBlockEnd
  0
BLOCK
  5
A8
330
A7
100
AcDbEntity
  8
0
100
AcDbBlockBegin
  2
*D14
 70
    1
 10
0
 20
0
  3
*D14
  1

  0
LINE
  5
161
100
AcDbEntity
  8
Measurements
  6
ByBlock
 62
    0
370
   -2
100
AcDbLine
 10
42.76896982821376
 20
104.5
 11
42.76896982821376
 21
152.4
  0
SOLID
  5
162
100
AcDbEntity
  8
Measurements
  6
ByBlock
 62
    0
370
   -2
100
AcDbTrace
 10
42.76896982821376
 20
104.5
 30
0
 11
42.35268517044092
 21
107
 31
0
 12
43.1852544859866
 22
107
 32
0
 13
43.1852544859866
 23
107
 33
0
  0
SOLID
  5
163
100
AcDbEntity
  8
Measurements
  6
ByBlock
 62
    0
370
   -2
100
AcDbTrace
 10
42.76896982821376
 20
152.4
 30
0
 11
43.1852544859866
 21
149.9
 31
0
 12
42.35268517044092
 22
149.9
 32
0
 13
42.35268517044092
 23
149.9
 33
0
  0
MTEXT
  5
164
100
AcDbEntity
  8
Measurements
  6
CONTINUOUS
 62
    0
370
   -2
100
AcDbMText
 10
40.89396982821376
 20
128.45
 30
0
 40
2.5
 41
11.94444444444445
 71
    5
 72
    1
  1
47.9000
  7
standard
210
0
220
0
230
1
 50
90
 73
    2
 44
1
  0
LINE
  5
165
100
AcDbEntity
  8
Measurements
  6
ByBlock
 62
    0
370
   -2
100
AcDbLine
 10
43.97865
 20
104.5
 11
41.51896982821376
 21
104.5
  0
LINE
  5
166
100
AcDbEntity
  8
Measurements
  6
ByBlock
 62
    0
370
   -2
100
AcDbLine
 10
43.97865
 20
152.4
 11
41.51896982821376
 21
152.4
  0
ENDBLK
  5
A9
330
A7
100
AcDbEntity
  8
0
100
AcDbBlockEnd
  0
BLOCK
  5
AB
330
AA
100
AcDbEntity
  8
0
100
AcDbBlockBegin
  2
*D32
 70
    1
 10
0
 20
0
  3
*D32
  1

  0
LINE
  5
167
100
AcDbEntity
  8
Measurements
  6
ByBlock
 62
    0
370
   -2
100
AcDbLine
 10
-38.98322208884717
 20
298.1805032247081
 11
13.53125873175841
 21
254.1156217366716
  0
LINE
  5
168
100
AcDbEntity
  8
Measurements
  6
ByBlock
 62
    0
370
   -2
100
AcDbLine
 10
38.10000000000001
 20
314.125
 11
38.10000000000001
 21
265.5722139412813
  0
ARC
  5
169
100
AcDbEntity
  8
Measurements
  6
ByBlock
 62
    0
370
   -2
100
AcDbCircle
 10
38.1
 20
233.5
 40
30.82221394128137
100
AcDbArc
 50
90
 51
140
  0
SOLID
  5
16A
100
AcDbEntity
  8
Measurements
  6
ByBlock
 62
    0
370
   -2
100
AcDbTrace
 10
14.48881428565713
 20
253.3121372245634
 30
0
 11
15.86432688594677
 21
255.440812400052
 31
0
 12
16.47988979992228
 22
254.8802288076002
 32
0
 13
16.47988979992228
 23
254.8802288076002
 33
0
  0
SOLID
  5
16B
100
AcDbEntity
  8
Measurements
  6
ByBlock
 62
    0
370
   -2
100
AcDbTrace
 10
38.1
 20
264.3222139412813
 30
0
 11
35.61893348599313
 21
263.8049114481781
 31
0
 12
35.58517775417774
 22
264.6367961852408
 32
0
 13
35.58517775417774
 23
264.6367961852408
 33
0
  0
MTEXT
  5
16C
100
AcDbEntity
  8
Measurements
  6
CONTINUOUS
 62
    0
370
   -2
100
AcDbMText
 10
24.8098331075478
 20
262.0008548755908
 30
0
 40
2.5
 41
9.444444444444599
 71
    8
 72
    1
  1
50.00%%D
  7
standard
210
0
220
0
230
1
 50
385
 73
    2
 44
1
  0
ENDBLK
  5
AC
330
AA
100
AcDbEntity
  8
0
100
AcDbBlockEnd
  0
BLOCK
  5
AE
330
AD
100
AcDbEntity
  8
0
100
AcDbBlockBegin
  2
*D12
 70
    1
 10
0
 20
0
  3
*D12
  1

  0
LINE
  5
16D
100
AcDbEntity
  8
Measurements
  6
ByBlock
 62
    0
370
   -2
100
AcDbLine
 10
6.931023580330316
 20
152.4
 11
6.931023580330313
 21
104.5
  0
SOLID
  5
16E
100
AcDbEntity
  8
Measurements
  6
ByBlock
 62
    0
370
   -2
100
AcDbTrace
 10
6.931023580330316
 20
152.4
 30
0
 11
7.347308238103157
 21
149.9
 31
0
 12
6.514738922557475
 22
149.9
 32
0
 13
6.514738922557475
 23
149.9
 33
0
  0
SOLID
  5
16F
100
AcDbEntity
  8
Measurements
  6
ByBlock
 62
    0
370
   -2
100
AcDbTrace
 10
6.931023580330313
 20
104.5
 30
0
 11
6.514738922557473
 21
107
 31
0
 12
7.347308238103154
 22
107
 32
0
 13
7.347308238103154
 23
107
 33
0
  0
MTEXT
  5
170
100
AcDbEntity
  8
Measurements
  6
CONTINUOUS
 62
    0
370
   -2
100
AcDbMText
 10
5.056023580330315
 20
128.45
 30
0
 40
2.5
 41
11.94444444444445
 71
    5
 72
    1
  1
47.9000
  7
standard
210
0
220
0
230
1
 50
90
 73
    2
 44
1
  0
LINE
  5
171
100
AcDbEntity
  8
Measurements
  6
ByBlock
 62
    0
370
   -2
100
AcDbLine
 10
12.075
 20
152.4
 11
5.681023580330316
 21
152.4
  0
LINE
  5
172
100
AcDbEntity
  8
Measurements
  6
ByBlock
 62
    0
370
   -2
100
AcDbLine
 10
12.07499999999998
 20
104.5
 11
5.681023580330313
 21
104.5
  0
ENDBLK
  5
AF
330
AD
100
AcDbEntity
  8
0
100
AcDbBlockEnd
  0
BLOCK
  5
B1
330
B0
100
AcDbEntity
  8
0
100
AcDbBlockBegin
  2
*D5
 70
    1
 10
0
 20
0
  3
*D5
  1

  0
LINE
  5
173
100
AcDbEntity
  8
Measurements
  6
ByBlock
 62
    0
370
   -2
100
AcDbLine
 10
32.07454550777635
 20
182.7
 11
32.07454550777635
 21
195.4
  0
SOLID
  5
174
100
AcDbEntity
  8
Measurements
  6
ByBlock
 62
    0
370
   -2
100
AcDbTrace
 10
32.07454550777635
 20
182.7
 30
0
 11
31.65826085000351
 21
185.2
 31
0
 12
32.49083016554919
 22
185.2
 32
0
 13
32.49083016554919
 23
185.2
 33
0
  0
SOLID
  5
175
100
AcDbEntity
  8
Measurements
  6
ByBlock
 62
    0
370
   -2
100
AcDbTrace
 10
32.07454550777635
 20
195.4
 30
0
 11
32.49083016554919
 21
192.9
 31
0
 12
31.65826085000351
 22
192.9
 32
0
 13
31.65826085000351
 23
192.9
 33
0
  0
MTEXT
  5
176
100
AcDbEntity
  8
Measurements
  6
CONTINUOUS
 62
    0
370
   -2
100
AcDbMText
 10
30.19954550777635
 20
189.05
 30
0
 40
2.5
 41
11.11111111111111
 71
    5
 72
    1
  1
12.7000
  7
standard
210
0
220
0
230
1
 50
90
 73
    2
 44
1
  0
LINE
  5
177
100
AcDbEntity
  8
Measurements
  6
ByBlock
 62
    0
370
   -2
100
AcDbLine
 10
26.025
 20
182.7
 11
33.32454550777635
 21
182.7
  0
LINE
  5
178
100
AcDbEntity
  8
Measurements
  6
ByBlock
 62
    0
370
   -2
100
AcDbLine
 10
26.025
 20
195.4
 11
33.32454550777635
 21
195.4
  0
ENDBLK
  5
B2
330
B0
100
AcDbEntity
  8
0
100
AcDbBlockEnd
  0
BLOCK
  5
B4
330
B3
100
AcDbEntity
  8
0
100
AcDbBlockBegin
  2
*D15
 70
    1
 10
0
 20
0
  3
*D15
  1

  0
LINE
  5
179
100
AcDbEntity
  8
Measurements
  6
ByBlock
 62
    0
370
   -2
100
AcDbLine
 10
241.982282169564
 20
137.8449780579617
 11
279.4
 21
137.8449780579617
  0
SOLID
  5
17A
100
AcDbEntity
  8
Measurements
  6
ByBlock
 62
    0
370
   -2
100
AcDbTrace
 10
241.982282169564
 20
137.8449780579617
 30
0
 11
244.482282169564
 21
138.2612627157345
 31
0
 12
244.482282169564
 22
137.4286934001888
 32
0
 13
244.482282169564
 23
137.4286934001888
 33
0
  0
SOLID
  5
17B
100
AcDbEntity
  8
Measurements
  6
ByBlock
 62
    0
370
   -2
100
AcDbTrace
 10
279.4
 20
137.8449780579617
 30
0
 11
276.9
 21
137.4286934001888
 31
0
 12
276.9
 22
138.2612627157345
 32
0
 13
276.9
 23
138.2612627157345
 33
0
  0
MTEXT
  5
17C
100
AcDbEntity
  8
Measurements
  6
CONTINUOUS
 62
    0
370
   -2
100
AcDbMText
 10
260.691141084782
 20
139.7199780579617
 30
0
 40
2.5
 41
11.38888888888904
 71
    5
 72
    1
  1
37.4177
  7
standard
210
0
220
0
230
1
 50
0
 73
    2
 44
1
  0
LINE
  5
17D
100
AcDbEntity
  8
Measurements
  6
ByBlock
 62
    0
370
   -2
100
AcDbLine
 10
241.982282169564
 20
131.7349474921152
 11
241.982282169564
 21
139.0949780579617
  0
LINE
  5
17E
100
AcDbEntity
  8
Measurements
  6
ByBlock
 62
    0
370
   -2
100
AcDbLine
 10
279.4
 20
131.7349474921152
 11
279.4
 21
139.0949780579617
  0
ENDBLK
  5
B5
330
B3
100
AcDbEntity
  8
0
100
AcDbBlockEnd
  0
BLOCK
  5
B7
330
B6
100
AcDbEntity
  8
0
100
AcDbBlockBegin
  2
*D8
 70
    1
 10
0
 20
0
  3
*D8
  1

  0
LINE
  5
17F
100
AcDbEntity
  8
Measurements
  6
ByBlock
 62
    0
370
   -2
100
AcDbLine
 10
43.60000000000001
 20
294.5793784793144
 11
32.60000000000001
 21
294.5793784793144
  0
SOLID
  5
180
100
AcDbEntity
  8
Measurements
  6
ByBlock
 62
    0
370
   -2
100
AcDbTrace
 10
43.60000000000001
 20
294.5793784793144
 30
0
 11
41.10000000000001
 21
294.1630938215416
 31
0
 12
41.10000000000001
 22
294.9956631370873
 32
0
 13
41.10000000000001
 23
294.9956631370873
 33
0
  0
SOLID
  5
181
100
AcDbEntity
  8
Measurements
  6
ByBlock
 62
    0
370
   -2
100
AcDbTrace
 10
32.60000000000001
 20
294.5793784793144
 30
0
 11
35.10000000000001
 21
294.9956631370873
 31
0
 12
35.10000000000001
 22
294.1630938215416
 32
0
 13
35.10000000000001
 23
294.1630938215416
 33
0
  0
MTEXT
  5
182
100
AcDbEntity
  8
Measurements
  6
CONTINUOUS
 62
    0
370
   -2
100
AcDbMText
 10
38.10000000000001
 20
296.4543784793144
 30
0
 40
2.5
 41
10.55555555555556
 71
    5
 72
    1
  1
11.0000
  7
standard
210
0
220
0
230
1
 50
360
 73
    2
 44
1
  0
LINE
  5
183
100
AcDbEntity
  8
Measurements
  6
ByBlock
 62
    0
370
   -2
100
AcDbLine
 10
43.60000000000001
 20
288.425
 11
43.60000000000001
 21
295.8293784793144
  0
LINE
  5
184
100
AcDbEntity
  8
Measurements
  6
ByBlock
 62
    0
370
   -2
100
AcDbLine
 10
32.60000000000001
 20
288.425
 11
32.60000000000001
 21
295.8293784793144
  0
ENDBLK
  5
B8
330
B6
100
AcDbEntity
  8
0
100
AcDbBlockEnd
  0
BLOCK
  5
BA
330
B9
100
AcDbEntity
  8
0
100
AcDbBlockBegin
  2
*D22
 70
    1
 10
0
 20
0
  3
*D22
  1

  0
LINE
  5
185
100
AcDbEntity
  8
Measurements
  6
ByBlock
 62
    0
370
   -2
100
AcDbLine
 10
161.598990816821
 20
112.4
 11
161.598990816821
 21
152.4
  0
SOLID
  5
186
100
AcDbEntity
  8
Measurements
  6
ByBlock
 62
    0
370
   -2
100
AcDbTrace
 10
161.598990816821
 20
112.4
 30
0
 11
161.1827061590481
 21
114.9
 31
0
 12
162.0152754745938
 22
114.9
 32
0
 13
162.0152754745938
 23
114.9
 33
0
  0
SOLID
  5
187
100
AcDbEntity
  8
Measurements
  6
ByBlock
 62
    0
370
   -2
100
AcDbTrace
 10
161.598990816821
 20
152.4
 30
0
 11
162.0152754745938
 21
149.9
 31
0
 12
161.1827061590481
 22
149.9
 32
0
 13
161.1827061590481
 23
149.9
 33
0
  0
MTEXT
  5
188
100
AcDbEntity
  8
Measurements
  6
CONTINUOUS
 62
    0
370
   -2
100
AcDbMText
 10
159.723990816821
 20
132.4
 30
0
 40
2.5
 41
11.94444444444445
 71
    5
 72
    1
  1
40.0000
  7
standard
210
0
220
0
230
1
 50
90
 73
    2
 44
1
  0
LINE
  5
189
100
AcDbEntity
  8
Measurements
  6
ByBlock
 62
    0
370
   -2
100
AcDbLine
 10
166.7573
 20
112.4
 11
160.348990816821
 21
112.4
  0
LINE
  5
18A
100
AcDbEntity
  8
Measurements
  6
ByBlock
 62
    0
370
   -2
100
AcDbLine
 10
166.7573
 20
152.4
 11
160.348990816821
 21
152.4
  0
ENDBLK
  5
BB
330
B9
100
AcDbEntity
  8
0
100
AcDbBlockEnd
  0
BLOCK
  5
BD
330
BC
100
AcDbEntity
  8
0
100
AcDbBlockBegin
  2
*D35
 70
    1
 10
0
 20
0
  3
*D35
  1

  0
LINE
  5
18B
100
AcDbEntity
  8
Measurements
  6
ByBlock
 62
    0
370
   -2
100
AcDbLine
 10
1.4210854715202e-014
 20
291.7792855144971
 11
38.10000000000001
 21
291.7792855144971
  0
SOLID
  5
18C
100
AcDbEntity
  8
Measurements
  6
ByBlock
 62
    0
370
   -2
100
AcDbTrace
 10
1.4210854715202e-014
 20
291.7792855144971
 30
0
 11
2.500000000000014
 21
292.1955701722699
 31
0
 12
2.500000000000014
 22
291.3630008567242
 32
0
 13
2.500000000000014
 23
291.3630008567242
 33
0
  0
SOLID
  5
18D
100
AcDbEntity
  8
Measurements
  6
ByBlock
 62
    0
370
   -2
100
AcDbTrace
 10
38.10000000000001
 20
291.7792855144971
 30
0
 11
35.60000000000001
 21
291.3630008567242
 31
0
 12
35.60000000000001
 22
292.1955701722699
 32
0
 13
35.60000000000001
 23
292.1955701722699
 33
0
  0
MTEXT
  5
18E
100
AcDbEntity
  8
Measurements
  6
CONTINUOUS
 62
    0
370
   -2
100
AcDbMText
 10
19.05000000000001
 20
293.6542855144971
 30
0
 40
2.5
 41
11.11111111111127
 71
    5
 72
    1
  1
38.1000
  7
standard
210
0
220
0
230
1
 50
0
 73
    2
 44
1
  0
LINE
  5
18F
100
AcDbEntity
  8
Measurements
  6
ByBlock
 62
    0
370
   -2
100
AcDbLine
 10
5.532268534339667e-015
 20
288.425
 11
1.734050593003508e-014
 21
293.0292855144971
  0
LINE
  5
190
100
AcDbEntity
  8
Measurements
  6
ByBlock
 62
    0
370
   -2
100
AcDbLine
 10
38.10000000000001
 20
288.425
 11
38.10000000000001
 21
293.0292855144971
  0
ENDBLK
  5
BE
330
BC
100
AcDbEntity
  8
0
100
AcDbBlockEnd
  0
ENDSEC
  0
SECTION
  2
ENTITIES
  0
LWPOLYLINE
  5
191
100
AcDbEntity
  8
0
  6
ByLayer
 62
  256
370
   -1
100
AcDbPolyline
 90
    4
 70
    1
 43
0
 10
0
 20
0
 10
279.4
 20
0
 10
279.4
 20
152.4
 10
0
 20
152.4
  0
LINE
  5
192
100
AcDbEntity
  8
Light
  6
ByLayer
 62
  256
370
   -1
100
AcDbLine
 10
151.5073
 20
124.7
 11
226.5073
 21
124.7
  0
LINE
  5
193
100
AcDbEntity
  8
Optomechanics
  6
ByLayer
 62
  256
370
   -1
100
AcDbLine
 10
72.0573
 20
145
 11
72.0573
 21
104.4
  0
LINE
  5
194
100
AcDbEntity
  8
Optomechanics
  6
ByLayer
 62
  256
370
   -1
100
AcDbLine
 10
80.9573
 20
145
 11
80.9573
 21
104.4
  0
LINE
  5
195
100
AcDbEntity
  8
Optomechanics
  6
ByLayer
 62
  256
370
   -1
100
AcDbLine
 10
80.9573
 20
145
 11
72.0573
 21
145
  0
LINE
  5
196
100
AcDbEntity
  8
Optomechanics
  6
ByLayer
 62
  256
370
   -1
100
AcDbLine
 10
72.0573
 20
104.4
 11
80.9573
 21
104.4
  0
LINE
  5
197
100
AcDbEntity
  8
Optics
  6
ByLayer
 62
  256
370
   -1
100
AcDbLine
 10
76.5073
 20
145
 11
76.5073
 21
104.4
  0
LINE
  5
198
100
AcDbEntity
  8
Optics
  6
ByLayer
 62
  256
370
   -1
100
AcDbLine
 10
151.5073
 20
145
 11
151.5073
 21
104.4
  0
CIRCLE
  5
199
100
AcDbEntity
  8
Posts
  6
ByLayer
 62
  256
370
   -1
100
AcDbCircle
 10
241.982282169564
 20
131.1099474921152
 40
12.7
  0
LINE
  5
19A
100
AcDbEntity
  8
Optomechanics
  6
ByLayer
 62
  256
370
   -1
100
AcDbLine
 10
239.3442928542715
 20
157.0770615476356
 11
226.1790095159856
 21
151.6238226364331
  0
LINE
  5
19B
100
AcDbEntity
  8
Optomechanics
  6
ByLayer
 62
  256
370
   -1
100
AcDbLine
 10
258.478464472526
 20
110.8830849220712
 11
245.3131811342401
 21
105.4298460108687
  0
LINE
  5
19C
100
AcDbEntity
  8
Optomechanics
  6
ByLayer
 62
  256
370
   -1
100
AcDbLine
 10
239.3442928542715
 20
157.0770615476356
 11
258.478464472526
 21
110.8830849220712
  0
LINE
  5
19D
100
AcDbEntity
  8
Optomechanics
  6
ByLayer
 62
  256
370
   -1
100
AcDbLine
 10
226.1790095159856
 20
151.6238226364331
 11
245.3131811342401
 21
105.4298460108687
  0
LINE
  5
19E
100
AcDbEntity
  8
Optomechanics
  6
ByLayer
 62
  256
370
   -1
100
AcDbLine
 10
224.331250450963
 20
150.8584557717029
 11
243.4654220692175
 21
104.6644791461385
  0
LINE
  5
19F
100
AcDbEntity
  8
Optomechanics
  6
ByLayer
 62
  256
370
   -1
100
AcDbLine
 10
216.9402141908728
 20
147.7969883127822
 11
236.0743858091272
 21
101.6030116872178
  0
LINE
  5
1A0
100
AcDbEntity
  8
Optomechanics
  6
ByLayer
 62
  256
370
   -1
100
AcDbLine
 10
224.331250450963
 20
150.8584557717029
 11
216.9402141908728
 21
147.7969883127822
  0
LINE
  5
1A1
100
AcDbEntity
  8
Optomechanics
  6
ByLayer
 62
  256
370
   -1
100
AcDbLine
 10
243.4654220692175
 20
104.6644791461385
 11
236.0743858091272
 21
101.6030116872178
  0
LINE
  5
1A2
100
AcDbEntity
  8
Optomechanics
  6
ByLayer
 62
  256
370
   -1
100
AcDbLine
 10
255.7431545563468
 20
163.8696924721159
 11
239.3442928542715
 21
157.0770615476356
  0
LINE
  5
1A3
100
AcDbEntity
  8
Optomechanics
  6
ByLayer
 62
  256
370
   -1
100
AcDbLine
 10
274.8773261746013
 20
117.6757158465516
 11
258.478464472526
 21
110.8830849220712
  0
LINE
  5
1A4
100
AcDbEntity
  8
Optomechanics
  6
ByLayer
 62
  256
370
   -1
100
AcDbLine
 10
259.5699888799977
 20
154.6308971470031
 11
243.1711271779223
 21
147.8382662225227
  0
LINE
  5
1A5
100
AcDbEntity
  8
Optomechanics
  6
ByLayer
 62
  256
370
   -1
100
AcDbLine
 10
271.0504918509504
 20
126.9145111716645
 11
254.651630148875
 21
120.1218802471841
  0
LINE
  5
1A6
100
AcDbEntity
  8
Optomechanics
  6
ByLayer
 62
  256
370
   -1
100
AcDbLine
 10
255.7431545563468
 20
163.8696924721159
 11
259.5699888799977
 21
154.6308971470031
  0
LINE
  5
1A7
100
AcDbEntity
  8
Optomechanics
  6
ByLayer
 62
  256
370
   -1
100
AcDbLine
 10
271.0504918509504
 20
126.9145111716645
 11
274.8773261746013
 21
117.6757158465516
  0
LINE
  5
1A8
100
AcDbEntity
  8
Optics
  6
ByLayer
 62
  256
370
   -1
100
AcDbLine
 10
216.9402141908728
 20
147.7969883127822
 11
236.0743858091272
 21
101.6030116872178
  0
LINE
  5
1A9
100
AcDbEntity
  8
Helping Lines
  6
ByLayer
 62
  256
370
   -1
100
AcDbLine
 10
226.5073
 20
124.7
 11
208.0297093497743
 21
117.0463313526982
  0
LINE
  5
1AA
100
AcDbEntity
  8
Light
  6
ByLayer
 62
  256
370
   -1
100
AcDbLine
 10
171.2114997392407
 20
74.03073442882547
 11
226.5073
 21
124.7
  0
CIRCLE
  5
1AB
100
AcDbEntity
  8
Posts
  6
ByLayer
 62
  256
370
   -1
100
AcDbCircle
 10
156.7253005263038
 20
74.66321554562283
 40
12.7
  0
CIRCLE
  5
1AC
100
AcDbEntity
  8
Drill Holes
  6
ByLayer
 62
  256
370
   -1
100
AcDbCircle
 10
156.7253005263038
 20
74.66321554562283
 40
3.175
  0
LINE
  5
1AD
100
AcDbEntity
  8
Optomechanics
  6
ByLayer
 62
  256
370
   -1
100
AcDbLine
 10
162.9196550179777
 20
99.61677185392243
 11
160.7212378947648
 21
49.2647414861968
  0
LINE
  5
1AE
100
AcDbEntity
  8
Optomechanics
  6
ByLayer
 62
  256
370
   -1
100
AcDbLine
 10
152.7293631578427
 20
100.0616896050489
 11
150.5309460346298
 21
49.70965923732324
  0
LINE
  5
1AF
100
AcDbEntity
  8
Optomechanics
  6
ByLayer
 62
  256
370
   -1
100
AcDbLine
 10
162.9196550179777
 20
99.61677185392243
 11
152.7293631578427
 21
100.0616896050489
  0
LINE
  5
1B0
100
AcDbEntity
  8
Optomechanics
  6
ByLayer
 62
  256
370
   -1
100
AcDbLine
 10
160.7212378947648
 20
49.2647414861968
 11
150.5309460346298
 21
49.70965923732324
  0
LINE
  5
1B1
100
AcDbEntity
  8
Optomechanics
  6
ByLayer
 62
  256
370
   -1
100
AcDbLine
 10
165.4172755719324
 20
99.5077233855091
 11
163.2188584487195
 21
49.15569301778346
  0
LINE
  5
1B2
100
AcDbEntity
  8
Optics
  6
ByLayer
 62
  256
370
   -1
100
AcDbLine
 10
165.7624527518163
 20
86.78055352279071
 11
171.7567420813074
 21
86.51883719859869
  0
LINE
  5
1B3
100
AcDbEntity
  8
Optics
  6
ByLayer
 62
  256
370
   -1
100
AcDbLine
 10
164.6719680676829
 20
61.80434798324426
 11
170.666257397174
 21
61.54263165905225
  0
LINE
  5
1B4
100
AcDbEntity
  8
Optics
  6
ByLayer
 62
  256
370
   -1
100
AcDbLine
 10
171.7567420813074
 20
86.51883719859869
 11
170.666257397174
 21
61.54263165905225
  0
LINE
  5
1B5
100
AcDbEntity
  8
Optics
  6
ByLayer
 62
  256
370
   -1
100
AcDbLine
 10
165.7624527518163
 20
86.78055352279071
 11
164.6719680676829
 21
61.80434798324426
  0
LINE
  5
1B6
100
AcDbEntity
  8
Optomechanics
  6
ByLayer
 62
  256
370
   -1
100
AcDbLine
 10
173.8092806332199
 20
99.14132053164028
 11
171.610863510007
 21
48.78929016391464
  0
LINE
  5
1B7
100
AcDbEntity
  8
Optomechanics
  6
ByLayer
 62
  256
370
   -1
100
AcDbLine
 10
173.8092806332199
 20
99.14132053164028
 11
165.4172755719324
 21
99.5077233855091
  0
LINE
  5
1B8
100
AcDbEntity
  8
Optomechanics
  6
ByLayer
 62
  256
370
   -1
100
AcDbLine
 10
171.610863510007
 20
48.78929016391464
 11
163.2188584487195
 21
49.15569301778346
  0
LINE
  5
1B9
100
AcDbEntity
  8
Optomechanics
  6
ByLayer
 62
  256
370
   -1
100
AcDbLine
 10
134.5466855250529
 20
100.855562455098
 11
152.7293631578427
 21
100.0616896050489
  0
LINE
  5
1BA
100
AcDbEntity
  8
Optomechanics
  6
ByLayer
 62
  256
370
   -1
100
AcDbLine
 10
132.34826840184
 20
50.50353208737236
 11
150.5309460346298
 21
49.70965923732324
  0
LINE
  5
1BB
100
AcDbEntity
  8
Optomechanics
  6
ByLayer
 62
  256
370
   -1
100
AcDbLine
 10
132.7844622754934
 20
60.49401430319094
 11
150.9671399082832
 21
59.70014145314181
  0
LINE
  5
1BC
100
AcDbEntity
  8
Optomechanics
  6
ByLayer
 62
  256
370
   -1
100
AcDbLine
 10
134.1104916513996
 20
90.86508023927939
 11
152.2931692841894
 21
90.07120738923028
  0
LINE
  5
1BD
100
AcDbEntity
  8
Optomechanics
  6
ByLayer
 62
  256
370
   -1
100
AcDbLine
 10
134.5466855250529
 20
100.855562455098
 11
134.1104916513996
 21
90.86508023927939
  0
LINE
  5
1BE
100
AcDbEntity
  8
Optomechanics
  6
ByLayer
 62
  256
370
   -1
100
AcDbLine
 10
132.7844622754934
 20
60.49401430319094
 11
132.34826840184
 21
50.50353208737236
  0
LINE
  5
1BF
100
AcDbEntity
  8
Helping Lines
  6
ByLayer
 62
  256
370
   -1
100
AcDbLine
 10
171.2114997392407
 20
74.03073442882547
 11
191.1924641708779
 21
73.15834668151875
  0
LINE
  5
1C0
100
AcDbEntity
  8
Helping Lines
  6
ByLayer
 62
  256
370
   -1
100
AcDbLine
 10
171.2114997392407
 20
74.03073442882551
 11
245.2299722856041
 21
61.93669780314737
  0
LINE
  5
1C1
100
AcDbEntity
  8
Helping Lines
  6
ByLayer
 62
  256
370
   -1
100
AcDbLine
 10
182.4872172570147
 20
20.84720168281974
 11
245.2299722856041
 21
61.93669780314737
  0
CIRCLE
  5
1C2
100
AcDbEntity
  8
Posts
  6
ByLayer
 62
  256
370
   -1
100
AcDbCircle
 10
261.6157476058297
 20
65.41072531528482
 40
12.7
  0
CIRCLE
  5
1C3
100
AcDbEntity
  8
Drill Holes
  6
ByLayer
 62
  256
370
   -1
100
AcDbCircle
 10
261.6157476058297
 20
65.41072531528482
 40
3.175
  0
LINE
  5
1C4
100
AcDbEntity
  8
Optomechanics
  6
ByLayer
 62
  256
370
   -1
100
AcDbLine
 10
263.7675462385613
 20
91.42264109717553
 11
249.8274090258321
 21
88.46712515401381
  0
LINE
  5
1C5
100
AcDbEntity
  8
Optomechanics
  6
ByLayer
 62
  256
370
   -1
100
AcDbLine
 10
274.1377776180761
 20
42.50987894724856
 11
260.1976404053469
 21
39.55436300408685
  0
LINE
  5
1C6
100
AcDbEntity
  8
Optomechanics
  6
ByLayer
 62
  256
370
   -1
100
AcDbLine
 10
263.7675462385613
 20
91.42264109717553
 11
274.1377776180761
 21
42.50987894724856
  0
LINE
  5
1C7
100
AcDbEntity
  8
Optomechanics
  6
ByLayer
 62
  256
370
   -1
100
AcDbLine
 10
249.8274090258321
 20
88.46712515401381
 11
260.1976404053469
 21
39.55436300408685
  0
LINE
  5
1C8
100
AcDbEntity
  8
Optomechanics
  6
ByLayer
 62
  256
370
   -1
100
AcDbLine
 10
247.8708985398351
 20
88.05231589883323
 11
258.2411299193499
 21
39.13955374890626
  0
LINE
  5
1C9
100
AcDbEntity
  8
Optomechanics
  6
ByLayer
 62
  256
370
   -1
100
AcDbLine
 10
240.0448565958467
 20
86.39307887811086
 11
250.4150879753615
 21
37.48031672818389
  0
LINE
  5
1CA
100
AcDbEntity
  8
Optomechanics
  6
ByLayer
 62
  256
370
   -1
100
AcDbLine
 10
247.8708985398351
 20
88.05231589883323
 11
240.0448565958467
 21
86.39307887811086
  0
LINE
  5
1CB
100
AcDbEntity
  8
Optomechanics
  6
ByLayer
 62
  256
370
   -1
100
AcDbLine
 10
258.2411299193499
 20
39.13955374890626
 11
250.4150879753615
 21
37.48031672818389
  0
LINE
  5
1CC
100
AcDbEntity
  8
Optomechanics
  6
ByLayer
 62
  256
370
   -1
100
AcDbLine
 10
281.1315768017854
 20
95.10407323690325
 11
263.7675462385613
 21
91.42264109717553
  0
LINE
  5
1CD
100
AcDbEntity
  8
Optomechanics
  6
ByLayer
 62
  256
370
   -1
100
AcDbLine
 10
291.5018081813001
 20
46.1913110869763
 11
274.1377776180761
 21
42.50987894724856
  0
LINE
  5
1CE
100
AcDbEntity
  8
Optomechanics
  6
ByLayer
 62
  256
370
   -1
100
AcDbLine
 10
283.2056230776884
 20
85.32152080691785
 11
265.8415925144643
 21
81.64008866719013
  0
LINE
  5
1CF
100
AcDbEntity
  8
Optomechanics
  6
ByLayer
 62
  256
370
   -1
100
AcDbLine
 10
289.4277619053972
 20
55.97386351696169
 11
272.0637313421731
 21
52.29243137723395
  0
LINE
  5
1D0
100
AcDbEntity
  8
Optomechanics
  6
ByLayer
 62
  256
370
   -1
100
AcDbLine
 10
281.1315768017854
 20
95.10407323690325
 11
283.2056230776884
 21
85.32152080691785
  0
LINE
  5
1D1
100
AcDbEntity
  8
Optomechanics
  6
ByLayer
 62
  256
370
   -1
100
AcDbLine
 10
289.4277619053972
 20
55.97386351696169
 11
291.5018081813001
 21
46.1913110869763
  0
LINE
  5
1D2
100
AcDbEntity
  8
Optics
  6
ByLayer
 62
  256
370
   -1
100
AcDbLine
 10
240.0448565958467
 20
86.39307887811086
 11
250.4150879753615
 21
37.48031672818389
  0
LINE
  5
1D3
100
AcDbEntity
  8
Helping Lines
  6
ByLayer
 62
  256
370
   -1
100
AcDbLine
 10
245.2299722856041
 20
61.93669780314737
 11
225.6648674256334
 21
57.78860525134147
  0
LINE
  5
1D4
100
AcDbEntity
  8
Light
  6
ByLayer
 62
  256
370
   -1
100
AcDbLine
 10
171.2114997392407
 20
74.0307344288255
 11
244.4176838703456
 21
65.76797876484002
  0
LINE
  5
1D5
100
AcDbEntity
  8
Light
  6
ByLayer
 62
  256
370
   -1
100
AcDbLine
 10
171.2114997392407
 20
74.03073442882547
 11
246.0741992268632
 21
57.95477396102999
  0
LINE
  5
1D6
100
AcDbEntity
  8
Light
  6
ByLayer
 62
  256
370
   -1
100
AcDbLine
 10
178.5696014591057
 20
27.16556583815157
 11
244.4176838703456
 21
65.76797876484002
  0
LINE
  5
1D7
100
AcDbEntity
  8
Light
  6
ByLayer
 62
  256
370
   -1
100
AcDbLine
 10
186.7128970613478
 20
14.73089736829039
 11
246.0741992268632
 21
57.95477396102999
  0
LINE
  5
1D8
100
AcDbEntity
  8
Light
  6
ByLayer
 62
  256
370
   -1
100
AcDbLine
 10
151.5073
 20
124.7
 11
76.5073
 21
124.7
  0
LINE
  5
1D9
100
AcDbEntity
  8
Light
  6
ByLayer
 62
  256
370
   -1
100
AcDbLine
 10
76.5073
 20
124.7
 11
38.09999999999999
 21
124.7
  0
LINE
  5
1DA
100
AcDbEntity
  8
Brackets
  6
ByLayer
 62
  256
370
   -1
100
AcDbLine
 10
-9.184547653667829e-016
 20
137.4
 11
-9.184547653667829e-016
 21
112
  0
LINE
  5
1DB
100
AcDbEntity
  8
Brackets
  6
ByLayer
 62
  256
370
   -1
100
AcDbLine
 10
0
 20
152.4
 11
25.4
 21
152.4
  0
LINE
  5
1DC
100
AcDbEntity
  8
Brackets
  6
ByLayer
 62
  256
370
   -1
100
AcDbLine
 10
-3.399299071393802e-014
 20
97.00000000000003
 11
25.39999999999997
 21
97.00000000000001
  0
LINE
  5
1DD
100
AcDbEntity
  8
Brackets
  6
ByLayer
 62
  256
370
   -1
100
AcDbLine
 10
25.4
 20
152.4
 11
25.4
 21
137.4
  0
LINE
  5
1DE
100
AcDbEntity
  8
Brackets
  6
ByLayer
 62
  256
370
   -1
100
AcDbLine
 10
25.4
 20
112
 11
25.39999999999997
 21
97.00000000000001
  0
LINE
  5
1DF
100
AcDbEntity
  8
Brackets
  6
ByLayer
 62
  256
370
   -1
100
AcDbLine
 10
-9.184547653667829e-016
 20
152.4
 11
-9.184547653667829e-016
 21
137.4
  0
LINE
  5
1E0
100
AcDbEntity
  8
Brackets
  6
ByLayer
 62
  256
370
   -1
100
AcDbLine
 10
-9.184547653667829e-016
 20
112
 11
-3.399299071393802e-014
 21
97.00000000000003
  0
LINE
  5
1E1
100
AcDbEntity
  8
Helping Lines
  6
ByLayer
 62
  256
370
   -1
100
AcDbLine
 10
25.4
 20
144.9
 11
-9.184547653667829e-016
 21
144.9
  0
LINE
  5
1E2
100
AcDbEntity
  8
Helping Lines
  6
ByLayer
 62
  256
370
   -1
100
AcDbLine
 10
12.7
 20
152.4
 11
12.7
 21
137.4
  0
LINE
  5
1E3
100
AcDbEntity
  8
Helping Lines
  6
ByLayer
 62
  256
370
   -1
100
AcDbLine
 10
12.7
 20
112
 11
12.69999999999996
 21
97.00000000000003
  0
LINE
  5
1E4
100
AcDbEntity
  8
Helping Lines
  6
ByLayer
 62
  256
370
   -1
100
AcDbLine
 10
25.39999999999998
 20
104.5
 11
-1.74557227396524e-014
 21
104.5
  0
CIRCLE
  5
1E5
100
AcDbEntity
  8
Drill Holes
  6
ByLayer
 62
  256
370
   -1
100
AcDbCircle
 10
12.7
 20
144.9
 40
3.175
  0
CIRCLE
  5
1E6
100
AcDbEntity
  8
Drill Holes
  6
ByLayer
 62
  256
370
   -1
100
AcDbCircle
 10
12.69999999999998
 20
104.5
 40
3.175
  0
CIRCLE
  5
1E7
100
AcDbEntity
  8
Posts
  6
ByLayer
 62
  256
370
   -1
100
AcDbCircle
 10
76.5073
 20
124.7
 40
12.7
  0
CIRCLE
  5
1E8
100
AcDbEntity
  8
Drill Holes
  6
ByLayer
 62
  256
370
   -1
100
AcDbCircle
 10
76.5073
 20
124.7
 40
3.175
  0
LINE
  5
1E9
100
AcDbEntity
  8
Brackets
  6
ByLayer
 62
  256
370
   -1
100
AcDbLine
 10
157.8573
 20
145
 11
157.8573
 21
104.4
  0
LINE
  5
1EA
100
AcDbEntity
  8
Brackets
  6
ByLayer
 62
  256
370
   -1
100
AcDbLine
 10
176.9073
 20
145
 11
151.5073
 21
145
  0
LINE
  5
1EB
100
AcDbEntity
  8
Brackets
  6
ByLayer
 62
  256
370
   -1
100
AcDbLine
 10
151.5073
 20
104.4
 11
176.9073
 21
104.4
  0
LINE
  5
1EC
100
AcDbEntity
  8
Brackets
  6
ByLayer
 62
  256
370
   -1
100
AcDbLine
 10
151.5073
 20
145
 11
151.5073
 21
104.4
  0
LINE
  5
1ED
100
AcDbEntity
  8
Brackets
  6
ByLayer
 62
  256
370
   -1
100
AcDbLine
 10
176.9073
 20
145
 11
176.9073
 21
104.4
  0
LINE
  5
1EE
100
AcDbEntity
  8
Brackets
  6
ByLayer
 62
  256
370
   -1
100
AcDbLine
 10
-9.184547653667829e-016
 20
137.4
 11
56.3
 21
137.4
  0
LINE
  5
1EF
100
AcDbEntity
  8
Brackets
  6
ByLayer
 62
  256
370
   -1
100
AcDbLine
 10
-9.184547653667829e-016
 20
112
 11
56.3
 21
112
  0
LINE
  5
1F0
100
AcDbEntity
  8
Brackets
  6
ByLayer
 62
  256
370
   -1
100
AcDbLine
 10
56.3
 20
137.4
 11
56.3
 21
112
  0
CIRCLE
  5
1F1
100
AcDbEntity
  8
Brackets
  6
ByLayer
 62
  256
370
   -1
100
AcDbCircle
 10
38.09999999999999
 20
124.7
 40
5.5
  0
LINE
  5
1F2
100
AcDbEntity
  8
Brackets
  6
ByLayer
 62
  256
370
   -1
100
AcDbLine
 10
151.5073
 20
124.7
 11
157.8573
 21
128.366174209354
  0
LINE
  5
1F3
100
AcDbEntity
  8
Brackets
  6
ByLayer
 62
  256
370
   -1
100
AcDbLine
 10
151.5073
 20
124.7
 11
157.8573
 21
121.0338257906459
  0
LINE
  5
1F4
100
AcDbEntity
  8
Brackets
  6
ByLayer
 62
  256
370
   -1
100
AcDbLine
 10
25.4
 20
130.2
 11
7.653789711389858e-016
 21
130.2
  0
LINE
  5
1F5
100
AcDbEntity
  8
Brackets
  6
ByLayer
 62
  256
370
   -1
100
AcDbLine
 10
25.4
 20
119.2
 11
-1.928755007270244e-015
 21
119.2
  0
LINE
  5
1F6
100
AcDbEntity
  8
Brackets
  6
ByLayer
 62
  256
370
   -1
100
AcDbLine
 10
25.4
 20
130.2
 11
25.4
 21
119.2
  0
CIRCLE
  5
1F7
100
AcDbEntity
  8
Drill Holes
  6
ByLayer
 62
  256
370
   -1
100
AcDbCircle
 10
241.982282169564
 20
131.1099474921152
 40
3.175
  0
LINE
  5
1F8
100
AcDbEntity
  8
Helping Lines
  6
ByLayer
 62
  256
370
   -1
100
AcDbLine
 10
170.9073
 20
137
 11
163.8573
 21
137
  0
LINE
  5
1F9
100
AcDbEntity
  8
Helping Lines
  6
ByLayer
 62
  256
370
   -1
100
AcDbLine
 10
163.8573
 20
112.4
 11
170.9073
 21
112.4
  0
CIRCLE
  5
1FA
100
AcDbEntity
  8
Drill Holes
  6
ByLayer
 62
  256
370
   -1
100
AcDbCircle
 10
167.3823
 20
137
 40
3.175
  0
CIRCLE
  5
1FB
100
AcDbEntity
  8
Drill Holes
  6
ByLayer
 62
  256
370
   -1
100
AcDbCircle
 10
167.3823
 20
112.4
 40
3.175
  0
LINE
  5
1FC
100
AcDbEntity
  8
Brackets
  6
ByLayer
 62
  256
370
   -1
100
AcDbLine
 10
170.9073
 20
140.175
 11
163.8573
 21
140.175
  0
LINE
  5
1FD
100
AcDbEntity
  8
Brackets
  6
ByLayer
 62
  256
370
   -1
100
AcDbLine
 10
170.9073
 20
133.825
 11
163.8573
 21
133.825
  0
LINE
  5
1FE
100
AcDbEntity
  8
Brackets
  6
ByLayer
 62
  256
370
   -1
100
AcDbLine
 10
170.9073
 20
115.575
 11
163.8573
 21
115.575
  0
LINE
  5
1FF
100
AcDbEntity
  8
Brackets
  6
ByLayer
 62
  256
370
   -1
100
AcDbLine
 10
163.8573
 20
109.225
 11
170.9073
 21
109.225
  0
ARC
  5
200
100
AcDbEntity
  8
Brackets
  6
ByLayer
 62
  256
370
   -1
100
AcDbCircle
 10
163.8573
 20
137
 40
3.175
100
AcDbArc
 50
90
 51
270
  0
ARC
  5
201
100
AcDbEntity
  8
Brackets
  6
ByLayer
 62
  256
370
   -1
100
AcDbCircle
 10
163.8573
 20
112.4
 40
3.175
100
AcDbArc
 50
90
 51
270
  0
ARC
  5
202
100
AcDbEntity
  8
Brackets
  6
ByLayer
 62
  256
370
   -1
100
AcDbCircle
 10
170.9073
 20
137
 40
3.175
100
AcDbArc
 50
270
 51
90
  0
ARC
  5
203
100
AcDbEntity
  8
Brackets
  6
ByLayer
 62
  256
370
   -1
100
AcDbCircle
 10
170.9073
 20
112.4
 40
3.175
100
AcDbArc
 50
270
 51
90
  0
LINE
  5
204
100
AcDbEntity
  8
Electronics
  6
ByLayer
 62
  256
370
   -1
100
AcDbLine
 10
174.2769829009281
 20
29.73348819854075
 11
177.2049788049327
 21
31.65099699542611
  0
LINE
  5
205
100
AcDbEntity
  8
Electronics
  6
ByLayer
 62
  256
370
   -1
100
AcDbLine
 10
179.2077198072048
 20
22.2043558739577
 11
182.1357157112093
 21
24.12186467084306
  0
LINE
  5
206
100
AcDbEntity
  8
Electronics
  6
ByLayer
 62
  256
370
   -1
100
AcDbLine
 10
182.420290456289
 20
17.29882755663122
 11
185.3482863602935
 21
19.21633635351658
  0
LINE
  5
207
100
AcDbEntity
  8
Electronics
  6
ByLayer
 62
  256
370
   -1
100
AcDbLine
 10
187.3510273625657
 20
9.769695232048146
 11
190.2790232665702
 21
11.68720402893351
  0
LINE
  5
208
100
AcDbEntity
  8
Electronics
  6
ByLayer
 62
  256
370
   -1
100
AcDbLine
 10
177.2049788049327
 20
31.65099699542611
 11
182.1357157112093
 21
24.12186467084306
  0
LINE
  5
209
100
AcDbEntity
  8
Electronics
  6
ByLayer
 62
  256
370
   -1
100
AcDbLine
 10
174.2769829009281
 20
29.73348819854075
 11
179.2077198072048
 21
22.2043558739577
  0
LINE
  5
20A
100
AcDbEntity
  8
Electronics
  6
ByLayer
 62
  256
370
   -1
100
AcDbLine
 10
182.420290456289
 20
17.29882755663122
 11
187.3510273625657
 21
9.769695232048146
  0
LINE
  5
20B
100
AcDbEntity
  8
Electronics
  6
ByLayer
 62
  256
370
   -1
100
AcDbLine
 10
185.3482863602935
 20
19.21633635351658
 11
190.2790232665702
 21
11.68720402893351
  0
LINE
  5
20C
100
AcDbEntity
  8
Optics
  6
ByLayer
 62
  256
370
   -1
100
AcDbLine
 10
175.9501234175021
 20
30.82920751104667
 11
180.8808603237788
 21
23.30007518646362
  0
LINE
  5
20D
100
AcDbEntity
  8
Optics
  6
ByLayer
 62
  256
370
   -1
100
AcDbLine
 10
184.093430972863
 20
18.39454686913713
 11
189.0241678791397
 21
10.86541454455406
  0
LINE
  5
20E
100
AcDbEntity
  8
Helping Lines
  6
ByLayer
 62
  256
370
   -1
100
AcDbLine
 10
189.0241678791397
 20
10.86541454455406
 11
175.9501234175021
 21
30.82920751104666
  0
LINE
  5
20F
100
AcDbEntity
  8
Electronics
  6
ByLayer
 62
  256
370
   -1
100
AcDbLine
 10
172.6038423843541
 20
28.63776888603483
 11
185.6778868459917
 21
8.673975919542228
  0
LINE
  5
210
100
AcDbEntity
  8
Electronics
  6
ByLayer
 62
  256
370
   -1
100
AcDbLine
 10
171.2653299710949
 20
27.76119343603009
 11
184.3393744327325
 21
7.797400469537511
  0
LINE
  5
211
100
AcDbEntity
  8
Electronics
  6
ByLayer
 62
  256
370
   -1
100
AcDbLine
 10
172.6038423843541
 20
28.63776888603483
 11
171.2653299710949
 21
27.76119343603009
  0
LINE
  5
212
100
AcDbEntity
  8
Electronics
  6
ByLayer
 62
  256
370
   -1
100
AcDbLine
 10
185.6778868459917
 20
8.673975919542228
 11
184.3393744327325
 21
7.797400469537511
  0
CIRCLE
  5
213
100
AcDbEntity
  8
Optomechanics
  6
ByLayer
 62
  256
370
   -1
100
AcDbCircle
 10
169.8131062352728
 20
12.54723723556799
 40
2.08
  0
CIRCLE
  5
214
100
AcDbEntity
  8
Posts
  6
ByLayer
 62
  256
370
   -1
100
AcDbCircle
 10
169.8131062352728
 20
12.54723723556799
 40
12.7
  0
CIRCLE
  5
215
100
AcDbEntity
  8
Drill Holes
  6
ByLayer
 62
  256
370
   -1
100
AcDbCircle
 10
169.8131062352728
 20
12.54723723556799
 40
3.175
  0
LINE
  5
216
100
AcDbEntity
  8
Optomechanics
  6
ByLayer
 62
  256
370
   -1
100
AcDbLine
 10
168.1213980353673
 20
41.32327975997313
 11
195.5143808480153
 21
-0.5052331543771621
  0
LINE
  5
217
100
AcDbEntity
  8
Optomechanics
  6
ByLayer
 62
  256
370
   -1
100
AcDbLine
 10
161.4288359690713
 20
36.94040250994944
 11
188.8218187817193
 21
-4.888110404400835
  0
LINE
  5
218
100
AcDbEntity
  8
Optomechanics
  6
ByLayer
 62
  256
370
   -1
100
AcDbLine
 10
150.8043936888263
 20
29.98258487553683
 11
178.1973765014744
 21
-11.84592803881345
  0
LINE
  5
219
100
AcDbEntity
  8
Optomechanics
  6
ByLayer
 62
  256
370
   -1
100
AcDbLine
 10
150.8043936888263
 20
29.98258487553682
 11
168.1213980353673
 21
41.32327975997314
  0
LINE
  5
21A
100
AcDbEntity
  8
Optomechanics
  6
ByLayer
 62
  256
370
   -1
100
AcDbLine
 10
178.1973765014744
 20
-11.84592803881343
 11
195.5143808480153
 21
-0.5052331543771622
  0
LINE
  5
21B
100
AcDbEntity
  8
Brackets
  6
ByLayer
 62
  256
370
   -1
100
AcDbLine
 10
4.665750208063261e-015
 20
195.4
 11
25.4
 21
195.4
  0
LINE
  5
21C
100
AcDbEntity
  8
Brackets
  6
ByLayer
 62
  256
370
   -1
100
AcDbLine
 10
151.5073
 20
182.7
 11
176.9073
 21
182.7
  0
LINE
  5
21D
100
AcDbEntity
  8
Brackets
  6
ByLayer
 62
  256
370
   -1
100
AcDbLine
 10
2.332875104031633e-015
 20
182.7
 11
25.4
 21
182.7
  0
LINE
  5
21E
100
AcDbEntity
  8
Posts
  6
ByLayer
 62
  256
370
   -1
100
AcDbLine
 10
63.80730000000028
 20
182.7
 11
89.20730000000002
 21
182.7
  0
LINE
  5
21F
100
AcDbEntity
  8
Brackets
  6
ByLayer
 62
  256
370
   -1
100
AcDbLine
 10
15.875
 20
195.4
 11
15.875
 21
182.7
  0
LINE
  5
220
100
AcDbEntity
  8
Brackets
  6
ByLayer
 62
  256
370
   -1
100
AcDbLine
 10
9.525000000000002
 20
195.4
 11
9.524999999999999
 21
182.7
  0
LINE
  5
221
100
AcDbEntity
  8
Helping Lines
  6
ByLayer
 62
  256
370
   -1
100
AcDbLine
 10
38.1
 20
233.5
 11
38.10000000000001
 21
313.5
  0
LINE
  5
222
100
AcDbEntity
  8
Helping Lines
  6
ByLayer
 62
  256
370
   -1
100
AcDbLine
 10
38.1
 20
233.5
 11
-38.50444431189779
 21
297.778760968654
  0
LINE
  5
223
100
AcDbEntity
  8
Helping Lines
  6
ByLayer
 62
  256
370
   -1
100
AcDbLine
 10
38.09999999999997
 20
233.5
 11
114.7044443118978
 21
169.221239031346
  0
LINE
  5
224
100
AcDbEntity
  8
Brackets
  6
ByLayer
 62
  256
370
   -1
100
AcDbLine
 10
43.60000000000001
 20
262.4
 11
43.60000000000001
 21
287.8
  0
LINE
  5
225
100
AcDbEntity
  8
Brackets
  6
ByLayer
 62
  256
370
   -1
100
AcDbLine
 10
32.59999999999999
 20
261.1472704170039
 11
32.60000000000001
 21
287.8
  0
LINE
  5
226
100
AcDbEntity
  8
Brackets
  6
ByLayer
 62
  256
370
   -1
100
AcDbLine
 10
25.40000000000001
 20
236.9768252246239
 11
3.429170191378166e-015
 21
258.2899558565268
  0
LINE
  5
227
100
AcDbEntity
  8
Brackets
  6
ByLayer
 62
  256
370
   -1
100
AcDbLine
 10
25.49568294774927
 20
251.2560178811127
 11
3.652496016877843e-015
 21
272.6494360391819
  0
LINE
  5
228
100
AcDbEntity
  8
Brackets
  6
ByLayer
 62
  256
370
   -1
100
AcDbLine
 10
56.3
 20
262.4
 11
56.3
 21
287.8
  0
LINE
  5
229
100
AcDbEntity
  8
Brackets
  6
ByLayer
 62
  256
370
   -1
100
AcDbLine
 10
8.455906873143519e-015
 20
287.8
 11
56.3
 21
287.8
  0
LINE
  5
22A
100
AcDbEntity
  8
Helping Lines
  6
ByLayer
 62
  256
370
   -1
100
AcDbLine
 10
43.60000000000001
 20
275.1
 11
32.6
 21
275.1
  0
LINE
  5
22B
100
AcDbEntity
  8
Helping Lines
  6
ByLayer
 62
  256
370
   -1
100
AcDbLine
 10
12.74784147387464
 20
261.9527269601473
 11
12.70000000000001
 21
247.6333905405754
  0
CIRCLE
  5
22C
100
AcDbEntity
  8
Brackets
  6
ByLayer
 62
  256
370
   -1
100
AcDbCircle
 10
38.1
 20
275.1
 40
2.08
  0
CIRCLE
  5
22D
100
AcDbEntity
  8
Brackets
  6
ByLayer
 62
  256
370
   -1
100
AcDbCircle
 10
12.72392073693732
 20
254.7930587503613
 40
2.08
  0
LINE
  5
22E
100
AcDbEntity
  8
Light
  6
ByLayer
 62
  256
370
   -1
100
AcDbLine
 10
226.5073
 20
233.5
 11
38.1
 21
233.5
  0
LINE
  5
22F
100
AcDbEntity
  8
Brackets
  6
ByLayer
 62
  256
370
   -1
100
AcDbLine
 10
151.5073
 20
246.2
 11
157.8573
 21
249.8661742093541
  0
LINE
  5
230
100
AcDbEntity
  8
Brackets
  6
ByLayer
 62
  256
370
   -1
100
AcDbLine
 10
151.5073
 20
220.8
 11
157.8573
 21
217.1338257906459
  0
LINE
  5
231
100
AcDbEntity
  8
Brackets
  6
ByLayer
 62
  256
370
   -1
100
AcDbLine
 10
151.5073
 20
264
 11
157.8573
 21
264
  0
LINE
  5
232
100
AcDbEntity
  8
Brackets
  6
ByLayer
 62
  256
370
   -1
100
AcDbLine
 10
151.5073
 20
264
 11
151.5073
 21
182.7
  0
LINE
  5
233
100
AcDbEntity
  8
Brackets
  6
ByLayer
 62
  256
370
   -1
100
AcDbLine
 10
3.967442926923128e-015
 20
287.8
 11
2.332875104031633e-015
 21
182.7
  0
LINE
  5
234
100
AcDbEntity
  8
Brackets
  6
ByLayer
 62
  256
370
   -1
100
AcDbLine
 10
38.1
 20
262.4
 11
56.3
 21
262.4
  0
LINE
  5
235
100
AcDbEntity
  8
Brackets
  6
ByLayer
 62
  256
370
   -1
100
AcDbLine
 10
25.4
 20
182.7
 11
25.4
 21
249.7
  0
ARC
  5
236
100
AcDbEntity
  8
Brackets
  6
ByLayer
 62
  256
370
   -1
100
AcDbCircle
 10
38.1
 20
249.7
 40
12.7
100
AcDbArc
 50
90
 51
180
  0
LINE
  5
237
100
AcDbEntity
  8
Optics
  6
ByLayer
 62
  256
370
   -1
100
AcDbLine
 10
76.5073
 20
246.2
 11
76.5073
 21
220.8
  0
LINE
  5
238
100
AcDbEntity
  8
Optomechanics
  6
ByLayer
 62
  256
370
   -1
100
AcDbLine
 10
81.6073
 20
248.7
 11
71.40730000000001
 21
248.7
  0
LINE
  5
239
100
AcDbEntity
  8
Optomechanics
  6
ByLayer
 62
  256
370
   -1
100
AcDbLine
 10
71.40730000000001
 20
248.7
 11
71.40730000000001
 21
211.4
  0
LINE
  5
23A
100
AcDbEntity
  8
Optomechanics
  6
ByLayer
 62
  256
370
   -1
100
AcDbLine
 10
81.6073
 20
248.7
 11
81.6073
 21
211.4
  0
LINE
  5
23B
100
AcDbEntity
  8
Optomechanics
  6
ByLayer
 62
  256
370
   -1
100
AcDbLine
 10
81.6073
 20
211.4
 11
71.40730000000001
 21
211.4
  0
LINE
  5
23C
100
AcDbEntity
  8
Posts
  6
ByLayer
 62
  256
370
   -1
100
AcDbLine
 10
89.20730000000002
 20
182.7
 11
89.20730000000002
 21
211.4
  0
LINE
  5
23D
100
AcDbEntity
  8
Posts
  6
ByLayer
 62
  256
370
   -1
100
AcDbLine
 10
63.80730000000028
 20
182.7
 11
63.80730000000028
 21
211.4
  0
LINE
  5
23E
100
AcDbEntity
  8
Posts
  6
ByLayer
 62
  256
370
   -1
100
AcDbLine
 10
89.20730000000002
 20
211.4
 11
63.80730000000028
 21
211.4
  0
LINE
  5
23F
100
AcDbEntity
  8
0
  6
ByLayer
 62
  256
370
   -1
100
AcDbLine
 10
2.332875104031633e-015
 20
182.7
 11
279.4
 21
182.7
  0
LINE
  5
240
100
AcDbEntity
  8
0
  6
ByLayer
 62
  256
370
   -1
100
AcDbLine
 10
3.944304526105059e-030
 20
170
 11
279.4
 21
170
  0
LINE
  5
241
100
AcDbEntity
  8
0
  6
ByLayer
 62
  256
370
   -1
100
AcDbLine
 10
279.4
 20
182.7
 11
279.4
 21
170
  0
LINE
  5
242
100
AcDbEntity
  8
0
  6
ByLayer
 62
  256
370
   -1
100
AcDbLine
 10
2.332875104031633e-015
 20
182.7
 11
3.944304526105059e-030
 21
170
  0
LINE
  5
243
100
AcDbEntity
  8
Helping Lines
  6
ByLayer
 62
  256
370
   -1
100
AcDbLine
 10
163.8573
 20
195.2
 11
163.8573
 21
104.4
  0
LINE
  5
244
100
AcDbEntity
  8
Helping Lines
  6
ByLayer
 62
  256
370
   -1
100
AcDbLine
 10
170.9073
 20
195.2
 11
170.9073
 21
104.4
  0
DIMENSION
  5
245
100
AcDbEntity
  8
Measurements
  6
ByLayer
 62
  256
370
   -1
100
AcDbDimension
  2
*D1
 10
146.3473098901104
 20
220.8
 30
0
 11
144.4723098901104
 21
201.75
 31
0
 70
   32
 71
    5
  3
Standard
 53
0
210
0
220
0
230
1
100
AcDbAlignedDimension
 13
151.5073
 23
182.7
 33
0
 14
151.5073
 24
220.8
 34
0
 50
90
100
AcDbRotatedDimension
  0
DIMENSION
  5
246
100
AcDbEntity
  8
Measurements
  6
ByLayer
 62
  256
370
   -1
100
AcDbDimension
  2
*D2
 10
146.4456222526104
 20
246.2
 30
0
 11
144.5706222526104
 21
233.5
 31
0
 70
   32
 71
    5
  3
Standard
 53
0
210
0
220
0
230
1
100
AcDbAlignedDimension
 13
151.5073
 23
220.8
 33
0
 14
151.5073
 24
246.2
 34
0
 50
90
100
AcDbRotatedDimension
  0
DIMENSION
  5
247
100
AcDbEntity
  8
Measurements
  6
ByLayer
 62
  256
370
   -1
100
AcDbDimension
  2
*D3
 10
157.8573
 20
269.0463521211503
 30
0
 11
154.6823
 21
270.9213521211503
 31
0
 70
   32
 71
    5
  3
Standard
 53
0
210
0
220
0
230
1
100
AcDbAlignedDimension
 13
151.5073
 23
264
 33
0
 14
157.8573
 24
264
 34
0
100
AcDbRotatedDimension
  0
DIMENSION
  5
248
100
AcDbEntity
  8
Measurements
  6
ByLayer
 62
  256
370
   -1
100
AcDbDimension
  2
*D4
 10
151.5073
 20
175.1438998121998
 30
0
 11
164.2073
 21
177.0188998121998
 31
0
 70
   32
 71
    5
  3
Standard
 53
0
210
0
220
0
230
1
100
AcDbAlignedDimension
 13
176.9073
 23
182.7
 33
0
 14
151.5073
 24
182.7
 34
0
100
AcDbRotatedDimension
  0
DIMENSION
  5
249
100
AcDbEntity
  8
Measurements
  6
ByLayer
 62
  256
370
   -1
100
AcDbDimension
  2
*D5
 10
32.07454550777635
 20
195.4
 30
0
 11
30.19954550777635
 21
189.05
 31
0
 70
   32
 71
    5
  3
Standard
 53
0
210
0
220
0
230
1
100
AcDbAlignedDimension
 13
25.4
 23
182.7
 33
0
 14
25.4
 24
195.4
 34
0
 50
90
100
AcDbRotatedDimension
  0
DIMENSION
  5
24A
100
AcDbEntity
  8
Measurements
  6
ByLayer
 62
  256
370
   -1
100
AcDbDimension
  2
*D6
 10
63.93807426879101
 20
287.8
 30
0
 11
62.06307426879101
 21
275.1
 31
0
 70
   32
 71
    5
  3
Standard
 53
0
210
0
220
0
230
1
100
AcDbAlignedDimension
 13
56.3
 23
262.4
 33
0
 14
56.3
 24
287.8
 34
0
 50
90
100
AcDbRotatedDimension
  0
DIMENSION
  5
24B
100
AcDbEntity
  8
Measurements
  6
ByLayer
 62
  256
370
   -1
100
AcDbDimension
  2
*D7
 10
5.118064298330863e-015
 20
202.7870936379807
 30
0
 11
12.7
 21
204.6620936379807
 31
0
 70
   32
 71
    5
  3
Standard
 53
0
210
0
220
0
230
1
100
AcDbAlignedDimension
 13
25.4
 23
195.4
 33
0
 14
4.665750208063261e-015
 24
195.4
 34
0
100
AcDbRotatedDimension
  0
DIMENSION
  5
24C
100
AcDbEntity
  8
Measurements
  6
ByLayer
 62
  256
370
   -1
100
AcDbDimension
  2
*D8
 10
32.60000000000001
 20
294.5793784793144
 30
0
 11
38.10000000000001
 21
296.4543784793144
 31
0
 70
   32
 71
    5
  3
Standard
 53
0
210
0
220
0
230
1
100
AcDbAlignedDimension
 13
43.60000000000001
 23
287.8
 33
0
 14
32.60000000000001
 24
287.8
 34
0
100
AcDbRotatedDimension
  0
LINE
  5
24D
100
AcDbEntity
  8
Helping Lines
  6
ByLayer
 62
  256
370
   -1
100
AcDbLine
 10
7.070663706551978
 20
266.7164447308356
 11
4.100886297209172e-014
 21
258.2899558565268
  0
DIMENSION
  5
24E
100
AcDbEntity
  8
Measurements
  6
ByLayer
 62
  256
370
   -1
100
AcDbDimension
  2
*D9
 10
-9.878190493376477
 20
266.5787418562179
 30
0
 11
-7.779191970948538
 21
271.9972130615346
 31
0
 70
   33
 71
    5
  3
Standard
 53
0
210
0
220
0
230
1
100
AcDbAlignedDimension
 13
7.070663706551978
 23
266.7164447308356
 33
0
 14
3.429170191378166e-015
 24
258.2899558565268
 34
0
  0
MTEXT
  5
24F
100
AcDbEntity
  8
0
  6
ByLayer
 62
  256
370
   -1
100
AcDbMText
 10
61.42721800305023
 20
34.77864548702109
 30
0
 40
10
 41
101.9444444444455
 71
    5
 72
    1
  1
Top-Down View
  7
standard
210
0
220
0
230
1
 50
0
 73
    2
 44
1
  0
MTEXT
  5
250
100
AcDbEntity
  8
0
  6
ByLayer
 62
  256
370
   -1
100
AcDbMText
 10
203.2518242747986
 20
220.4153116580038
 30
0
 40
10
 41
63.05555343553407
 71
    5
 72
    1
  1
Side View
  7
standard
210
0
220
0
230
1
 50
0
 73
    2
 44
1
  0
CIRCLE
  5
251
100
AcDbEntity
  8
Drill Holes
  6
ByLayer
 62
  256
370
   -1
100
AcDbCircle
 10
44.60365
 20
104.5
 40
3.175
  0
CIRCLE
  5
252
100
AcDbEntity
  8
Drill Holes
  6
ByLayer
 62
  256
370
   -1
100
AcDbCircle
 10
44.60365
 20
144.9
 40
3.175
  0
LINE
  5
253
100
AcDbEntity
  8
Drill Holes
  6
ByLayer
 62
  256
370
   -1
100
AcDbLine
 10
15.875
 20
170
 11
15.875
 21
182.7
  0
LINE
  5
254
100
AcDbEntity
  8
Drill Holes
  6
ByLayer
 62
  256
370
   -1
100
AcDbLine
 10
9.525000000000002
 20
170
 11
9.525000000000002
 21
182.7
  0
LINE
  5
255
100
AcDbEntity
  8
Drill Holes
  6
ByLayer
 62
  256
370
   -1
100
AcDbLine
 10
41.42865
 20
170
 11
41.42865
 21
182.7
  0
LINE
  5
256
100
AcDbEntity
  8
Drill Holes
  6
ByLayer
 62
  256
370
   -1
100
AcDbLine
 10
47.77865
 20
170
 11
47.77865
 21
182.7
  0
LINE
  5
257
100
AcDbEntity
  8
Drill Holes
  6
ByLayer
 62
  256
370
   -1
100
AcDbLine
 10
73.33230000000002
 20
170
 11
73.33230000000002
 21
182.7
  0
LINE
  5
258
100
AcDbEntity
  8
Drill Holes
  6
ByLayer
 62
  256
370
   -1
100
AcDbLine
 10
79.68230000000001
 20
170
 11
79.68230000000001
 21
182.7
  0
LINE
  5
259
100
AcDbEntity
  8
Drill Holes
  6
ByLayer
 62
  256
370
   -1
100
AcDbLine
 10
264.7907476058297
 20
170
 11
264.7907476058297
 21
182.7
  0
LINE
  5
25A
100
AcDbEntity
  8
Drill Holes
  6
ByLayer
 62
  256
370
   -1
100
AcDbLine
 10
258.4407476058297
 20
170
 11
258.4407476058297
 21
182.7
  0
LINE
  5
25B
100
AcDbEntity
  8
Drill Holes
  6
ByLayer
 62
  256
370
   -1
100
AcDbLine
 10
245.157282169564
 20
170
 11
245.157282169564
 21
182.7
  0
LINE
  5
25C
100
AcDbEntity
  8
Drill Holes
  6
ByLayer
 62
  256
370
   -1
100
AcDbLine
 10
238.807282169564
 20
170
 11
238.807282169564
 21
182.7
  0
LINE
  5
25D
100
AcDbEntity
  8
Drill Holes
  6
ByLayer
 62
  256
370
   -1
100
AcDbLine
 10
159.9003005263039
 20
170
 11
159.9003005263039
 21
182.7
  0
LINE
  5
25E
100
AcDbEntity
  8
Drill Holes
  6
ByLayer
 62
  256
370
   -1
100
AcDbLine
 10
153.5503005263038
 20
170
 11
153.5503005263038
 21
182.7
  0
LINE
  5
25F
100
AcDbEntity
  8
Drill Holes
  6
ByLayer
 62
  256
370
   -1
100
AcDbLine
 10
164.2073
 20
170
 11
164.2073
 21
182.7
  0
LINE
  5
260
100
AcDbEntity
  8
Drill Holes
  6
ByLayer
 62
  256
370
   -1
100
AcDbLine
 10
170.5573
 20
170
 11
170.5573
 21
182.7
  0
LINE
  5
261
100
AcDbEntity
  8
Drill Holes
  6
ByLayer
 62
  256
370
   -1
100
AcDbLine
 10
166.6381062352728
 20
170
 11
166.6381062352728
 21
182.7
  0
LINE
  5
262
100
AcDbEntity
  8
Drill Holes
  6
ByLayer
 62
  256
370
   -1
100
AcDbLine
 10
172.9881062352729
 20
170
 11
172.9881062352729
 21
182.7
  0
LINE
  5
263
100
AcDbEntity
  8
Brackets
  6
ByLayer
 62
  256
370
   -1
100
AcDbLine
 10
157.8573
 20
264.0000000000001
 11
157.8573
 21
195.4
  0
LINE
  5
264
100
AcDbEntity
  8
Brackets
  6
ByLayer
 62
  256
370
   -1
100
AcDbLine
 10
176.9073
 20
195.4
 11
176.9073
 21
182.7
  0
LINE
  5
265
100
AcDbEntity
  8
Brackets
  6
ByLayer
 62
  256
370
   -1
100
AcDbLine
 10
157.8573
 20
195.4
 11
176.9073
 21
195.4
  0
LINE
  5
266
100
AcDbEntity
  8
Brackets
  6
ByLayer
 62
  256
370
   -1
100
AcDbLine
 10
160.6823
 20
195.4
 11
160.6823
 21
182.7
  0
LINE
  5
267
100
AcDbEntity
  8
Brackets
  6
ByLayer
 62
  256
370
   -1
100
AcDbLine
 10
174.0823
 20
195.4
 11
174.0823
 21
182.7
  0
DIMENSION
  5
268
100
AcDbEntity
  8
Measurements
  6
ByLayer
 62
  256
370
   -1
100
AcDbDimension
  2
*D10
 10
181.9668730454973
 20
195.4
 30
0
 11
180.0918730454973
 21
189.05
 31
0
 70
   32
 71
    5
  3
Standard
 53
0
210
0
220
0
230
1
100
AcDbAlignedDimension
 13
176.9073
 23
182.7
 33
0
 14
176.9073
 24
195.4
 34
0
 50
90
100
AcDbRotatedDimension
  0
DIMENSION
  5
269
100
AcDbEntity
  8
Measurements
  6
ByLayer
 62
  256
370
   -1
100
AcDbDimension
  2
*D11
 10
18.92279453677483
 20
144.9
 30
0
 11
17.04779453677483
 21
148.65
 31
0
 70
   32
 71
    5
  3
Standard
 53
0
210
0
220
0
230
1
100
AcDbAlignedDimension
 13
12.7
 23
152.4
 33
0
 14
12.7
 24
144.9
 34
0
 50
90
100
AcDbRotatedDimension
  0
DIMENSION
  5
26A
100
AcDbEntity
  8
Measurements
  6
ByLayer
 62
  256
370
   -1
100
AcDbDimension
  2
*D12
 10
6.931023580330313
 20
104.5
 30
0
 11
5.056023580330315
 21
128.45
 31
0
 70
   32
 71
    5
  3
Standard
 53
0
210
0
220
0
230
1
100
AcDbAlignedDimension
 13
12.7
 23
152.4
 33
0
 14
12.69999999999998
 24
104.5
 34
0
 50
90
100
AcDbRotatedDimension
  0
DIMENSION
  5
26B
100
AcDbEntity
  8
Measurements
  6
ByLayer
 62
  256
370
   -1
100
AcDbDimension
  2
*D13
 10
52.25771747074444
 20
152.4
 30
0
 11
50.38271747074444
 21
148.65
 31
0
 70
   32
 71
    5
  3
Standard
 53
0
210
0
220
0
230
1
100
AcDbAlignedDimension
 13
44.60365
 23
144.9
 33
0
 14
44.60365
 24
152.4
 34
0
 50
90
100
AcDbRotatedDimension
  0
DIMENSION
  5
26C
100
AcDbEntity
  8
Measurements
  6
ByLayer
 62
  256
370
   -1
100
AcDbDimension
  2
*D14
 10
42.76896982821376
 20
152.4
 30
0
 11
40.89396982821376
 21
128.45
 31
0
 70
   32
 71
    5
  3
Standard
 53
0
210
0
220
0
230
1
100
AcDbAlignedDimension
 13
44.60365
 23
104.5
 33
0
 14
44.60365
 24
152.4
 34
0
 50
90
100
AcDbRotatedDimension
  0
LINE
  5
26D
100
AcDbEntity
  8
Helping Lines
  6
ByLayer
 62
  256
370
   -1
100
AcDbLine
 10
151.5073
 20
124.7
 11
176.9073
 21
124.7
  0
DIMENSION
  5
26E
100
AcDbEntity
  8
Measurements
  6
ByLayer
 62
  256
370
   -1
100
AcDbDimension
  2
*D15
 10
279.4
 20
137.8449780579617
 30
0
 11
260.691141084782
 21
139.7199780579617
 31
0
 70
   32
 71
    5
  3
Standard
 53
0
210
0
220
0
230
1
100
AcDbAlignedDimension
 13
241.982282169564
 23
131.1099474921152
 33
0
 14
279.4
 24
131.1099474921152
 34
0
100
AcDbRotatedDimension
  0
DIMENSION
  5
26F
100
AcDbEntity
  8
Measurements
  6
ByLayer
 62
  256
370
   -1
100
AcDbDimension
  2
*D16
 10
279.4
 20
71.28752376265972
 30
0
 11
270.5078738029148
 21
73.16252376265972
 31
0
 70
   32
 71
    5
  3
Standard
 53
0
210
0
220
0
230
1
100
AcDbAlignedDimension
 13
261.6157476058297
 23
65.41072531528482
 33
0
 14
279.4
 24
65.41072531528482
 34
0
100
AcDbRotatedDimension
  0
DIMENSION
  5
270
100
AcDbEntity
  8
Measurements
  6
ByLayer
 62
  256
370
   -1
100
AcDbDimension
  2
*D17
 10
279.4
 20
79.85875095992965
 30
0
 11
218.0626502631519
 21
81.73375095992965
 31
0
 70
   32
 71
    5
  3
Standard
 53
0
210
0
220
0
230
1
100
AcDbAlignedDimension
 13
156.7253005263038
 23
74.66321554562283
 33
0
 14
279.4
 24
74.66321554562283
 34
0
100
AcDbRotatedDimension
  0
DIMENSION
  5
271
100
AcDbEntity
  8
Measurements
  6
ByLayer
 62
  256
370
   -1
100
AcDbDimension
  2
*D18
 10
279.4
 20
18.39678032584767
 30
0
 11
224.6065531176364
 21
20.27178032584767
 31
0
 70
   32
 71
    5
  3
Standard
 53
0
210
0
220
0
230
1
100
AcDbAlignedDimension
 13
169.8131062352728
 23
12.54723723556799
 33
0
 14
279.4
 24
12.54723723556799
 34
0
100
AcDbRotatedDimension
  0
DIMENSION
  5
272
100
AcDbEntity
  8
Measurements
  6
ByLayer
 62
  256
370
   -1
100
AcDbDimension
  2
*D19
 10
279.4
 20
128.568407959049
 30
0
 11
177.95365
 21
130.443407959049
 31
0
 70
   32
 71
    5
  3
Standard
 53
0
210
0
220
0
230
1
100
AcDbAlignedDimension
 13
76.5073
 23
124.7
 33
0
 14
279.4
 24
124.7
 34
0
100
AcDbRotatedDimension
  0
DIMENSION
  5
273
100
AcDbEntity
  8
Measurements
  6
ByLayer
 62
  256
370
   -1
100
AcDbDimension
  2
*D20
 10
279.4
 20
116.652311611625
 30
0
 11
223.39115
 21
118.527311611625
 31
0
 70
   32
 71
    5
  3
Standard
 53
0
210
0
220
0
230
1
100
AcDbAlignedDimension
 13
167.3823
 23
112.4
 33
0
 14
279.4
 24
112.4
 34
0
100
AcDbRotatedDimension
  0
DIMENSION
  5
274
100
AcDbEntity
  8
Measurements
  6
ByLayer
 62
  256
370
   -1
100
AcDbDimension
  2
*D21
 10
174.0823
 20
152.4
 30
0
 11
172.2073
 21
144.7
 31
0
 70
   32
 71
    5
  3
Standard
 53
0
210
0
220
0
230
1
100
AcDbAlignedDimension
 13
167.3823
 23
137
 33
0
 14
167.3823
 24
152.4
 34
0
 50
90
100
AcDbRotatedDimension
  0
DIMENSION
  5
275
100
AcDbEntity
  8
Measurements
  6
ByLayer
 62
  256
370
   -1
100
AcDbDimension
  2
*D22
 10
161.598990816821
 20
152.4
 30
0
 11
159.723990816821
 21
132.4
 31
0
 70
   32
 71
    5
  3
Standard
 53
0
210
0
220
0
230
1
100
AcDbAlignedDimension
 13
167.3823
 23
112.4
 33
0
 14
167.3823
 24
152.4
 34
0
 50
90
100
AcDbRotatedDimension
  0
DIMENSION
  5
276
100
AcDbEntity
  8
Measurements
  6
ByLayer
 62
  256
370
   -1
100
AcDbDimension
  2
*D23
 10
237.6947639828273
 20
152.4
 30
0
 11
235.8197639828273
 21
141.7549737460576
 31
0
 70
   32
 71
    5
  3
Standard
 53
0
210
0
220
0
230
1
100
AcDbAlignedDimension
 13
241.982282169564
 23
131.1099474921152
 33
0
 14
241.982282169564
 24
152.4
 34
0
 50
90
100
AcDbRotatedDimension
  0
DIMENSION
  5
277
100
AcDbEntity
  8
Measurements
  6
ByLayer
 62
  256
370
   -1
100
AcDbDimension
  2
*D24
 10
259.4144730454763
 20
152.4
 30
0
 11
257.5394730454763
 21
108.9053626576424
 31
0
 70
   32
 71
    5
  3
Standard
 53
0
210
0
220
0
230
1
100
AcDbAlignedDimension
 13
261.6157476058297
 23
65.41072531528482
 33
0
 14
261.6157476058297
 24
152.4
 34
0
 50
90
100
AcDbRotatedDimension
  0
DIMENSION
  5
278
100
AcDbEntity
  8
Measurements
  6
ByLayer
 62
  256
370
   -1
100
AcDbDimension
  2
*D25
 10
151.5643833663586
 20
152.4
 30
0
 11
149.6893833663586
 21
113.5316077728114
 31
0
 70
   32
 71
    5
  3
Standard
 53
0
210
0
220
0
230
1
100
AcDbAlignedDimension
 13
156.7253005263038
 23
74.66321554562283
 33
0
 14
156.7253005263038
 24
152.4
 34
0
 50
90
100
AcDbRotatedDimension
  0
DIMENSION
  5
279
100
AcDbEntity
  8
Measurements
  6
ByLayer
 62
  256
370
   -1
100
AcDbDimension
  2
*D26
 10
165.571022932629
 20
152.4
 30
0
 11
163.696022932629
 21
82.473618617784
 31
0
 70
   32
 71
    5
  3
Standard
 53
0
210
0
220
0
230
1
100
AcDbAlignedDimension
 13
169.8131062352728
 23
12.54723723556799
 33
0
 14
169.8131062352728
 24
152.4
 34
0
 50
90
100
AcDbRotatedDimension
  0
DIMENSION
  5
27A
100
AcDbEntity
  8
Measurements
  6
ByLayer
 62
  256
370
   -1
100
AcDbDimension
  2
*D27
 10
279.4
 20
146.5470796411275
 30
0
 11
146.05
 21
148.4220796411275
 31
0
 70
   32
 71
    5
  3
Standard
 53
0
210
0
220
0
230
1
100
AcDbAlignedDimension
 13
12.7
 23
144.9
 33
0
 14
279.4
 24
144.9
 34
0
100
AcDbRotatedDimension
  0
DIMENSION
  5
27B
100
AcDbEntity
  8
Measurements
  6
ByLayer
 62
  256
370
   -1
100
AcDbDimension
  2
*D28
 10
279.4
 20
99.92796586085439
 30
0
 11
162.001825
 21
101.8029658608544
 31
0
 70
   32
 71
    5
  3
Standard
 53
0
210
0
220
0
230
1
100
AcDbAlignedDimension
 13
44.60365
 23
104.5
 33
0
 14
279.4
 24
104.5
 34
0
100
AcDbRotatedDimension
  0
DIMENSION
  5
27C
100
AcDbEntity
  8
Measurements
  6
ByLayer
 62
  256
370
   -1
100
AcDbDimension
  2
*D29
 10
-5.226358047115816
 20
152.4
 30
0
 11
-7.101358047115822
 21
76.2
 31
0
 70
   32
 71
    5
  3
Standard
 53
0
210
0
220
0
230
1
100
AcDbAlignedDimension
 13
0
 23
0
 33
0
 14
-9.184547653667829e-016
 24
152.4
 34
0
 50
90
100
AcDbRotatedDimension
  0
DIMENSION
  5
27D
100
AcDbEntity
  8
Measurements
  6
ByLayer
 62
  256
370
   -1
100
AcDbDimension
  2
*D30
 10
279.4
 20
-5.226358047115816
 30
0
 11
139.7
 21
-3.351358047115816
 31
0
 70
   32
 71
    5
  3
Standard
 53
0
210
0
220
0
230
1
100
AcDbAlignedDimension
 13
0
 23
0
 33
0
 14
279.4
 24
0
 34
0
100
AcDbRotatedDimension
  0
DIMENSION
  5
27E
100
AcDbEntity
  8
Measurements
  6
ByLayer
 62
  256
370
   -1
100
AcDbDimension
  2
*D31
 10
-4.609266335089736
 20
182.7
 30
0
 11
-6.484266335089737
 21
176.35
 31
0
 70
   32
 71
    5
  3
Standard
 53
0
210
0
220
0
230
1
100
AcDbAlignedDimension
 13
3.944304526105059e-030
 23
170
 33
0
 14
2.332875104031633e-015
 24
182.7
 34
0
 50
90
100
AcDbRotatedDimension
  0
DIMENSION
  5
27F
100
AcDbEntity
  8
Measurements
  6
ByLayer
 62
  256
370
   -1
100
AcDbDimension
  2
*D32
 10
38.10000000000001
 20
313.5
 30
0
 11
0
 21
0
 31
0
 70
   34
 71
    5
  3
Standard
 53
0
210
0
220
0
230
1
100
AcDb2LineAngularDimension
 13
38.1
 23
233.5
 33
0
 14
-38.50444431189779
 24
297.778760968654
 34
0
 15
38.1
 25
233.5
 35
0
 16
27.06399683748042
 26
262.278733579485
 36
0
  0
DIMENSION
  5
280
100
AcDbEntity
  8
Measurements
  6
ByLayer
 62
  256
370
   -1
100
AcDbDimension
  2
*D33
 10
-15.80847522137368
 20
287.8
 30
0
 11
-17.68347522137368
 21
235.25
 31
0
 70
   32
 71
    5
  3
Standard
 53
0
210
0
220
0
230
1
100
AcDbAlignedDimension
 13
2.332875104031633e-015
 23
182.7
 33
0
 14
8.455906873143519e-015
 24
287.8
 34
0
 50
90
100
AcDbRotatedDimension
  0
DIMENSION
  5
281
100
AcDbEntity
  8
Measurements
  6
ByLayer
 62
  256
370
   -1
100
AcDbDimension
  2
*D34
 10
-5.871719367938796
 20
265.4696959478544
 30
0
 11
-7.746719367938798
 21
224.0848479739272
 31
0
 70
   32
 71
    5
  3
Standard
 53
0
210
0
220
0
230
1
100
AcDbAlignedDimension
 13
2.332875104031633e-015
 23
182.7
 33
0
 14
3.62015085766508e-015
 24
265.4696959478544
 34
0
 50
90
100
AcDbRotatedDimension
  0
DIMENSION
  5
282
100
AcDbEntity
  8
Measurements
  6
ByLayer
 62
  256
370
   -1
100
AcDbDimension
  2
*D35
 10
38.10000000000001
 20
291.7792855144971
 30
0
 11
19.05000000000001
 21
293.6542855144971
 31
0
 70
   32
 71
    5
  3
Standard
 53
0
210
0
220
0
230
1
100
AcDbAlignedDimension
 13
3.967442926923128e-015
 23
287.8
 33
0
 14
38.10000000000001
 24
287.8
 34
0
100
AcDbRotatedDimension
  0
CIRCLE
  5
283
100
AcDbEntity
  8
Brackets
  6
ByLayer
 62
  256
370
   -1
100
AcDbCircle
 10
170.9073
 20
124.7
 40
1.5875
  0
CIRCLE
  5
284
100
AcDbEntity
  8
Brackets
  6
ByLayer
 62
  256
370
   -1
100
AcDbCircle
 10
163.8573
 20
124.7
 40
1.5875
  0
LINE
  5
285
100
AcDbEntity
  8
Drill Holes
  6
ByLayer
 62
  256
370
   -1
100
AcDbLine
 10
160.3323
 20
126.2875
 11
174.4323
 21
126.2875
  0
LINE
  5
286
100
AcDbEntity
  8
Drill Holes
  6
ByLayer
 62
  256
370
   -1
100
AcDbLine
 10
174.4323
 20
123.1125
 11
160.3323
 21
123.1125
  0
ARC
  5
287
100
AcDbEntity
  8
Drill Holes
  6
ByLayer
 62
  256
370
   -1
100
AcDbCircle
 10
160.3323
 20
124.7
 40
1.5875
100
AcDbArc
 50
90
 51
270
  0
ARC
  5
288
100
AcDbEntity
  8
Drill Holes
  6
ByLayer
 62
  256
370
   -1
100
AcDbCircle
 10
174.4323
 20
124.7
 40
1.5875
100
AcDbArc
 50
269.999999999999
 51
90.00000000000102
  0
ENDSEC
  0
SECTION
  2
OBJECTS
  0
DICTIONARY
  5
C
330
0
100
AcDbDictionary
281
    1
  3
ACAD_GROUP
350
D
  0
DICTIONARY
  5
D
330
C
100
AcDbDictionary
281
    1
  0
ENDSEC
  0
EOF
